<?xml version="1.0" encoding="UTF-8" ?>
<svg xmlns="http://www.w3.org/2000/svg" xmlns:xlink="http://www.w3.org/1999/xlink" version="1.1" width="813" height="1150">
  <style>
    .label { font-family: arial, sans-serif; font-size: 18px; fill: black; text-anchor: left; dominant-baseline: central }
    .edge { stroke: black; stroke-width: 1; fill: none }
    .fold { stroke: black; stroke-width: 1; stroke-dasharray: 3,4; fill: none }
  </style>
  <defs>
    <pattern id="diagonalHatch" width="5" height="10" patternTransform="rotate(45 0 0)" patternUnits="userSpaceOnUse">
      <line x1="0" y1="0" x2="0" y2="10" style="stroke:black; stroke-width:1" />
    </pattern>
    <g id="ttt_net">
      <line x1="105" y1="-181.8653347947321" x2="52.5" y2="-90.93266739736605" class="edge" />
      <line x1="105" y1="0" x2="210" y2="0" class="fold" />
      <line x1="210" y1="0" x2="262.5" y2="-90.93266739736605" class="fold" />
      <line x1="262.5" y1="-90.93266739736605" x2="210" y2="-181.8653347947321" class="fold" />
      <line x1="210" y1="-181.8653347947321" x2="105" y2="-181.8653347947321" class="fold" />
      <line x1="52.5" y1="-90.93266739736605" x2="105" y2="0" class="fold" />
      <line x1="367.5" y1="-272.7980021920982" x2="262.5" y2="-272.7980021920982" class="edge" />
      <line x1="262.5" y1="-272.7980021920982" x2="210.0" y2="-181.86533479473212" class="fold" />
      <line x1="262.5" y1="-90.93266739736607" x2="367.5" y2="-90.93266739736607" class="fold" />
      <line x1="367.5" y1="-90.93266739736607" x2="420.0" y2="-181.86533479473212" class="fold" />
      <line x1="367.5" y1="-272.7980021920982" x2="420.0" y2="-181.86533479473212" class="fold" />
      <line x1="420" y1="0" x2="525" y2="0" class="edge" />
      <line x1="525" y1="0" x2="577.5" y2="-90.93266739736605" class="fold" />
      <line x1="577.5" y1="-90.93266739736605" x2="525" y2="-181.8653347947321" class="fold" />
      <line x1="525" y1="-181.8653347947321" x2="420" y2="-181.8653347947321" class="fold" />
      <line x1="367.5" y1="-90.93266739736605" x2="420" y2="0" class="fold" />
      <line x1="682.5" y1="-272.7980021920982" x2="577.5" y2="-272.7980021920982" class="fold" />
      <line x1="577.5" y1="-272.7980021920982" x2="525.0" y2="-181.86533479473212" class="fold" />
      <line x1="577.5" y1="-90.93266739736607" x2="682.5" y2="-90.93266739736607" class="fold" />
      <line x1="682.5" y1="-90.93266739736607" x2="735.0" y2="-181.86533479473212" class="fold" />
      <line x1="682.5" y1="-272.7980021920982" x2="735.0" y2="-181.86533479473212" class="fold" />
      <line x1="105" y1="-181.8653347947321" x2="157.5" y2="-218.98844080702582" class="fold" />
      <line x1="157.5" y1="-218.98844080702582" x2="210" y2="-181.8653347947321" class="edge" />
      <line x1="105" y1="0" x2="46.60044712597079" y2="-26.904780692536157" class="fold" />
      <line x1="46.60044712597079" y1="-26.904780692536157" x2="52.5" y2="-90.93266739736605" class="edge" />
      <line x1="210" y1="0" x2="268.3995528740292" y2="-26.904780692536157" class="edge" />
      <line x1="268.3995528740292" y1="-26.904780692536157" x2="262.5" y2="-90.93266739736605" class="fold" />
      <line x1="367.5" y1="-90.93266739736607" x2="315.0" y2="-53.80956138507236" class="fold" />
      <line x1="315.0" y1="-53.80956138507236" x2="262.5" y2="-90.93266739736607" class="edge" />
      <line x1="367.5" y1="-272.7980021920982" x2="425.8995528740292" y2="-245.89322149956206" class="fold" />
      <line x1="425.8995528740292" y1="-245.89322149956206" x2="420.0" y2="-181.86533479473212" class="edge" />
      <line x1="262.5" y1="-272.7980021920982" x2="204.1004471259708" y2="-245.89322149956206" class="edge" />
      <line x1="204.1004471259708" y1="-245.89322149956206" x2="210.0" y2="-181.86533479473212" class="fold" />
      <line x1="420" y1="-181.8653347947321" x2="472.5" y2="-218.98844080702582" class="fold" />
      <line x1="472.5" y1="-218.98844080702582" x2="525" y2="-181.8653347947321" class="edge" />
      <line x1="420" y1="0" x2="361.6004471259708" y2="-26.904780692536157" class="fold" />
      <line x1="361.6004471259708" y1="-26.904780692536157" x2="367.5" y2="-90.93266739736605" class="edge" />
      <line x1="525" y1="0" x2="583.3995528740293" y2="-26.904780692536157" class="edge" />
      <line x1="583.3995528740293" y1="-26.904780692536157" x2="577.5" y2="-90.93266739736605" class="fold" />
      <line x1="682.5" y1="-90.93266739736607" x2="630.0" y2="-53.80956138507236" class="fold" />
      <line x1="630.0" y1="-53.80956138507236" x2="577.5" y2="-90.93266739736607" class="edge" />
      <line x1="682.5" y1="-272.7980021920982" x2="740.8995528740293" y2="-245.89322149956206" class="fold" />
      <line x1="740.8995528740293" y1="-245.89322149956206" x2="735.0" y2="-181.86533479473212" class="edge" />
      <line x1="577.5" y1="-272.7980021920982" x2="519.1004471259707" y2="-245.89322149956206" class="edge" />
      <line x1="519.1004471259707" y1="-245.89322149956206" x2="525.0" y2="-181.86533479473212" class="fold" />
      <polygon points="105,-181.8653347947321 122.69865862208763,-212.52031075400487 157.5,-218.98844080702582" style="fill:url(#diagonalHatch)" />
      <polyline points="105,-181.8653347947321 122.69865862208763,-212.52031075400487 157.5,-218.98844080702582" class="edge" />
      <polygon points="105,0 69.60268275582473,0 46.60044712597079,-26.904780692536157" style="fill:url(#diagonalHatch)" />
      <polyline points="105,0 69.60268275582473,0 46.60044712597079,-26.904780692536157" class="edge" />
      <polygon points="262.5,-90.93266739736605 280.19865862208763,-60.27769143809329 268.3995528740292,-26.904780692536157" style="fill:url(#diagonalHatch)" />
      <polyline points="262.5,-90.93266739736605 280.19865862208763,-60.27769143809329 268.3995528740292,-26.904780692536157" class="edge" />
      <polygon points="367.5,-90.93266739736607 349.8013413779123,-60.27769143809331 315.0,-53.80956138507236" style="fill:url(#diagonalHatch)" />
      <polyline points="367.5,-90.93266739736607 349.8013413779123,-60.27769143809331 315.0,-53.80956138507236" class="edge" />
      <polygon points="367.5,-272.7980021920982 402.89731724417527,-272.7980021920982 425.8995528740292,-245.89322149956206" style="fill:url(#diagonalHatch)" />
      <polyline points="367.5,-272.7980021920982 402.89731724417527,-272.7980021920982 425.8995528740292,-245.89322149956206" class="edge" />
      <polygon points="210.0,-181.86533479473212 192.3013413779124,-212.52031075400487 204.1004471259708,-245.89322149956206" style="fill:url(#diagonalHatch)" />
      <polyline points="210.0,-181.86533479473212 192.3013413779124,-212.52031075400487 204.1004471259708,-245.89322149956206" class="edge" />
      <polygon points="420,-181.8653347947321 437.6986586220877,-212.52031075400487 472.5,-218.98844080702582" style="fill:url(#diagonalHatch)" />
      <polyline points="420,-181.8653347947321 437.6986586220877,-212.52031075400487 472.5,-218.98844080702582" class="edge" />
      <polygon points="420,0 384.60268275582473,0 361.6004471259708,-26.904780692536157" style="fill:url(#diagonalHatch)" />
      <polyline points="420,0 384.60268275582473,0 361.6004471259708,-26.904780692536157" class="edge" />
      <polygon points="577.5,-90.93266739736605 595.1986586220876,-60.27769143809329 583.3995528740293,-26.904780692536157" style="fill:url(#diagonalHatch)" />
      <polyline points="577.5,-90.93266739736605 595.1986586220876,-60.27769143809329 583.3995528740293,-26.904780692536157" class="edge" />
      <polygon points="682.5,-90.93266739736607 664.8013413779123,-60.27769143809331 630.0,-53.80956138507236" style="fill:url(#diagonalHatch)" />
      <polyline points="682.5,-90.93266739736607 664.8013413779123,-60.27769143809331 630.0,-53.80956138507236" class="edge" />
      <polygon points="682.5,-272.7980021920982 717.8973172441753,-272.7980021920982 740.8995528740293,-245.89322149956206" style="fill:url(#diagonalHatch)" />
      <polyline points="682.5,-272.7980021920982 717.8973172441753,-272.7980021920982 740.8995528740293,-245.89322149956206" class="edge" />
      <polygon points="525.0,-181.86533479473212 507.3013413779124,-212.52031075400487 519.1004471259707,-245.89322149956206" style="fill:url(#diagonalHatch)" />
      <polyline points="525.0,-181.86533479473212 507.3013413779124,-212.52031075400487 519.1004471259707,-245.89322149956206" class="edge" />
      <polygon points="105,0 115.50000000000001,18.186533479473212 199.5,18.186533479473212 210,0" style="fill:url(#diagonalHatch)" />
      <polyline points="105,0 115.50000000000001,18.186533479473212 199.5,18.186533479473212 210,0" class="edge" />
      <polygon points="577.5,-272.7980021920982 588.0,-290.9845356715714 672.0,-290.9845356715714 682.5,-272.7980021920982" style="fill:url(#diagonalHatch)" />
      <polyline points="577.5,-272.7980021920982 588.0,-290.9845356715714 672.0,-290.9845356715714 682.5,-272.7980021920982" class="edge" />
      <polygon points="682.5,-90.93266739736607 703.5,-90.93266739736607 745.5,-163.6788013152589 735.0,-181.86533479473212" style="fill:url(#diagonalHatch)" />
      <polyline points="682.5,-90.93266739736607 703.5,-90.93266739736607 745.5,-163.6788013152589 735.0,-181.86533479473212" class="edge" />
    </g>
  </defs>
  <rect x="1" y="1" width="812" height="1149" fill="none" stroke="black" stroke-width="1"/>
  <use xlink:href="#ttt_net" transform="scale(1.02) rotate(4 20 257) translate(20 257)" />
  <use xlink:href="#ttt_net" transform="scale(1.02) rotate(4 20 534) translate(20 534)" />
  <use xlink:href="#ttt_net" transform="scale(1.02) rotate(4 20 811) translate(20 811)" />
  <use xlink:href="#ttt_net" transform="scale(1.02) rotate(4 20 1088) translate(20 1088)" />
  <text x="20" y="30" class="label" writing-mode="tb-rl">Papercraft Triakis Truncated Tetrahedron - http://github.com/timhutton/</text>
</svg>
