solid ttt_base
facet normal 0.2886767119165915 -0.5000297779291382 -0.8164777873164475
  outer loop
    vertex -3.429182359955734 51.41520800113879 0.3070265117560869
    vertex -6.315723281870116 46.415726799967 2.3482484023229184
    vertex -12.089353257014073 46.415726799967 0.3069038085824261
  endloop
endfacet
facet normal 0.5773204564302332 1.5640419864271954e-05 0.8165176607658676
  outer loop
    vertex -9.20290547972168 51.41520800113899 16.63692542723627
    vertex -9.202995776959803 61.41510500431262 16.636797723758427
    vertex -12.089745355433319 56.41515841007433 18.67797560097038
  endloop
endfacet
facet normal -0.8660310078164515 0.49999029249048643 -3.0260523123150763e-05
  outer loop
    vertex -20.749735280338317 61.41510500431262 0.306743510330301
    vertex -23.636273999880906 56.41546740055301 2.3479685156162295
    vertex -23.636487973530713 56.41546740055301 8.471716437688263
  endloop
endfacet
facet normal 0.8660351595166067 0.4999831012797707 3.026066819034056e-05
  outer loop
    vertex -6.316150584157528 66.41521181583606 8.471955614597567
    vertex -3.429182359955734 61.41510500431262 0.3070265117560869
    vertex -6.315936610507712 66.41521181583606 2.348207692525532
  endloop
endfacet
facet normal 0.0 1.0 0.0
  outer loop
    vertex -6.316150584157528 66.41521181583606 8.471955614597567
    vertex -6.315936610507712 66.41521181583606 2.348207692525532
    vertex -12.08956658565167 66.41521181583606 0.30686309878503976
  endloop
endfacet
facet normal 0.28868492437241183 0.49998710679795183 -0.816501014987678
  outer loop
    vertex -3.429182359955734 61.41510500431262 0.3070265117560869
    vertex -12.08956658565167 66.41521181583606 0.30686309878503976
    vertex -6.315936610507712 66.41521181583606 2.348207692525532
  endloop
endfacet
facet normal 0.28868492437241156 0.49998710679795183 -0.8165010149876781
  outer loop
    vertex -38.07029040309226 21.415516991617277 0.30702339703744685
    vertex -46.7306746287882 26.415623803140715 0.3068599840663997
    vertex -40.95704465364424 26.415623803140715 2.348204577806892
  endloop
endfacet
facet normal -0.5773570185256577 -1.60224794791849e-05 -0.8164918082273964
  outer loop
    vertex -20.74951974932893 51.415360589029575 0.3067873348467843
    vertex -23.636273999880906 56.41546740055301 2.3479685156162295
    vertex -20.749735280338317 61.41510500431262 0.306743510330301
  endloop
endfacet
facet normal -0.4714072531034148 0.816495950608209 0.33333101320142783
  outer loop
    vertex -23.636487973530713 56.41546740055301 8.471716437688263
    vertex -12.08956658565167 66.41521181583606 0.30686309878503976
    vertex -20.749735280338317 61.41510500431262 0.306743510330301
  endloop
endfacet
facet normal -0.4714072531034148 0.816495950608209 0.33333101320142783
  outer loop
    vertex -12.08956658565167 66.41521181583606 0.30686309878503976
    vertex -23.636487973530713 56.41546740055301 8.471716437688263
    vertex -6.316150584157528 66.41521181583606 8.471955614597567
  endloop
endfacet
facet normal -0.4714072531034148 0.816495950608209 0.33333101320142783
  outer loop
    vertex -6.316150584157528 66.41521181583606 8.471955614597567
    vertex -23.636487973530713 56.41546740055301 8.471716437688263
    vertex -18.541325243378424 56.41515841002638 15.67758138675786
  endloop
endfacet
facet normal -0.4714072531034148 0.816495950608209 0.33333101320142783
  outer loop
    vertex -6.316150584157528 66.41521181583606 8.471955614597567
    vertex -18.541325243378424 56.41515841002638 15.67758138675786
    vertex -9.202995776959803 61.41510500431262 16.636797723758427
  endloop
endfacet
facet normal -0.4714072531034148 0.816495950608209 0.33333101320142783
  outer loop
    vertex -9.202995776959803 61.41510500431262 16.636797723758427
    vertex -18.541325243378424 56.41515841002638 15.67758138675786
    vertex -17.863162269274802 56.41515459537722 16.63668125002245
  endloop
endfacet
facet normal -0.2886859605904835 0.4999996356468677 0.8164929764002562
  outer loop
    vertex -9.202995776959803 61.41510500431262 16.636797723758427
    vertex -17.863162269274802 56.41515459537722 16.63668125002245
    vertex -12.089745355433319 56.41515841007433 18.67797560097038
  endloop
endfacet
facet normal -0.2886749661542218 -0.499973622253276 0.8165127928984319
  outer loop
    vertex -9.68806832650386 31.695788947534066 16.636870151581114
    vertex -12.08953202679571 36.415673394205285 18.678016310767767
    vertex -17.86316447164661 36.41551699161773 16.63667813530314
  endloop
endfacet
facet normal -0.2886749661542218 -0.499973622253276 0.8165127928984319
  outer loop
    vertex -12.08953202679571 36.415673394205285 18.678016310767767
    vertex -9.68806832650386 31.695788947534066 16.636870151581114
    vertex -9.202907682093485 31.415570397379504 16.636922312516962
  endloop
endfacet
facet normal 0.8660586370961468 -0.4999424283921187 7.351568650791526e-05
  outer loop
    vertex -6.315723281870116 6.415520806314784 2.3482484023229184
    vertex -6.316243083767105 6.415520806314874 8.471824796400663
    vertex -6.316089605219635 6.415520806314697 6.663755961475527
  endloop
endfacet
facet normal 0.8660586370961468 -0.4999424283921187 7.351568650791526e-05
  outer loop
    vertex -6.316243083767105 6.415520806314874 8.471824796400663
    vertex -6.315723281870116 6.415520806314784 2.3482484023229184
    vertex -3.4291845623273693 11.41561998844345 0.3070233970375427
  endloop
endfacet
facet normal 0.0 1.0 0.0
  outer loop
    vertex -23.636487973530713 56.41546740055301 8.471716437688263
    vertex -23.636273999880906 56.41546740055301 2.3479685156162295
    vertex -29.409903975024857 56.41546740055301 0.3066239218757371
  endloop
endfacet
facet normal 0.5773208962544611 -1.602132383890807e-05 0.8165173497796988
  outer loop
    vertex -9.20290768209344 21.415516991617785 16.636922312517047
    vertex -12.089747557804943 16.415570397378996 18.677972486251836
    vertex -9.203123213102458 11.41546740055321 16.636878488001113
  endloop
endfacet
facet normal 0.8660320292320112 0.49998852405508726 1.2549933592704242e-05
  outer loop
    vertex -6.316027552758133 26.415623803141166 8.471868620916512
    vertex -3.4291845623273693 21.415516991617277 0.3070233970375427
    vertex -6.315938812879336 26.415623803140715 2.348204577806988
  endloop
endfacet
facet normal -0.28869315643192034 0.5000021283685556 0.8164889056541365
  outer loop
    vertex -26.523333166332996 51.415360589029575 16.636558546849123
    vertex -35.18371518965731 46.41525759220342 16.63639824859672
    vertex -29.410082744806505 46.4154139947913 18.677736424061077
  endloop
endfacet
facet normal -0.8660226700182134 0.5000047344450074 -2.339022503549224e-05
  outer loop
    vertex -40.95704089391328 46.415570397379284 8.47199943911405
    vertex -40.95682692026347 46.415570397379284 2.3482515170420153
    vertex -40.95688942403073 46.41541399478553 6.721225092859204
  endloop
endfacet
facet normal -0.8660226700182134 0.5000047344450074 -2.339022503549224e-05
  outer loop
    vertex -40.95682692026347 46.415570397379284 2.3482515170420153
    vertex -40.95704089391328 46.415570397379284 8.47199943911405
    vertex -38.07007266971151 51.415360589029575 0.30650433342099836
  endloop
endfacet
facet normal 0.2886648088927027 -0.5000916162739446 -0.8164441214433804
  outer loop
    vertex -20.74951974932893 41.41546358585575 0.3067873348467843
    vertex -23.63627620225261 36.41582979679327 2.3485314037487384
    vertex -29.409906177396568 36.41582979679327 0.3071868100082459
  endloop
endfacet
facet normal 0.2886648088927027 -0.5000916162739446 -0.8164441214433804
  outer loop
    vertex -23.63627620225261 36.41582979679327 2.3485314037487384
    vertex -20.74951974932893 41.41546358585575 0.3067873348467843
    vertex -22.173950150997747 38.948462824706255 1.3142579586004743
  endloop
endfacet
facet normal 0.28868492437241144 0.4999871067979517 -0.8165010149876782
  outer loop
    vertex -3.4289690313181374 41.41561998844356 0.3070672215534733
    vertex -12.089353257014073 46.415726799967 0.3069038085824261
    vertex -6.315723281870116 46.415726799967 2.3482484023229184
  endloop
endfacet
facet normal -0.5773914394125885 -4.5832009786690803e-05 -0.8164674663405065
  outer loop
    vertex -22.173950150997747 38.948462824706255 1.3142579586004743
    vertex -20.749521951700633 31.41572298526983 0.30735022297929304
    vertex -23.63627620225261 36.41582979679327 2.3485314037487384
  endloop
endfacet
facet normal -0.5773914394125885 -4.5832009786690803e-05 -0.8164674663405065
  outer loop
    vertex -20.749521951700633 31.41572298526983 0.30735022297929304
    vertex -22.173950150997747 38.948462824706255 1.3142579586004743
    vertex -20.74951974932893 41.41546358585575 0.3067873348467843
  endloop
endfacet
facet normal 0.28868492437241156 0.4999871067979517 -0.8165010149876782
  outer loop
    vertex -20.74951974932893 51.415360589029575 0.3067873348467843
    vertex -29.409903975024857 56.41546740055301 0.3066239218757371
    vertex -23.636273999880906 56.41546740055301 2.3479685156162295
  endloop
endfacet
facet normal -0.2886749661542294 -0.4999736222532757 0.8165127928984294
  outer loop
    vertex -9.688283865614235 11.695685955385022 16.636826327065055
    vertex -12.089747557804943 16.415570397378996 18.677972486251836
    vertex -17.863380002655582 16.41541399479143 16.63663431078729
  endloop
endfacet
facet normal -0.2886749661542294 -0.4999736222532757 0.8165127928984294
  outer loop
    vertex -12.089747557804943 16.415570397378996 18.677972486251836
    vertex -9.688283865614235 11.695685955385022 16.636826327065055
    vertex -9.203123213102458 11.41546740055321 16.636878488001113
  endloop
endfacet
facet normal 0.28868176167102944 -0.49998239163846814 -0.8165050205173197
  outer loop
    vertex -3.4291845623273693 11.41561998844345 0.3070233970375427
    vertex -6.315723281870116 6.415520806314784 2.3482484023229184
    vertex -12.089568788023126 6.415520806314767 0.30685998406610077
  endloop
endfacet
facet normal 0.8660351595166066 0.4999831012797711 3.026066819017299e-05
  outer loop
    vertex -6.315937255519921 46.415726799967 8.471996324394953
    vertex -3.4289690313181374 41.41561998844356 0.3070672215534733
    vertex -6.315723281870116 46.415726799967 2.3482484023229184
  endloop
endfacet
facet normal -0.28869315643192495 0.5000021283685573 0.816488905654134
  outer loop
    vertex -9.202782448322205 41.41561998844356 16.636838433555813
    vertex -17.86316447164661 36.41551699161773 16.63667813530314
    vertex -12.08953202679571 36.415673394205285 18.678016310767767
  endloop
endfacet
facet normal 0.28868874036297465 0.49998842868736754 -0.816498856316637
  outer loop
    vertex -3.4291845623273693 21.415516991617277 0.3070233970375427
    vertex -12.089353257014164 26.415623803141067 0.30690380858194954
    vertex -6.315938812879336 26.415623803140715 2.348204577806988
  endloop
endfacet
facet normal -0.5773918790390885 -4.6212749796043305e-05 -0.816467155422735
  outer loop
    vertex -38.07007266971149 41.415463585855846 0.3070703362725702
    vertex -40.95682692026347 46.415570397379284 2.3482515170420153
    vertex -38.07007266971151 51.415360589029575 0.30650433342099836
  endloop
endfacet
facet normal -0.28867496615418803 -0.4999736222532164 0.8165127928984803
  outer loop
    vertex -27.00861905535543 41.69552955437883 16.636590264874332
    vertex -29.410082744806505 46.4154139947913 18.677736424061077
    vertex -35.18371518965731 46.41525759220342 16.63639824859672
  endloop
endfacet
facet normal -0.28867496615418803 -0.4999736222532164 0.8165127928984803
  outer loop
    vertex -29.410082744806505 46.4154139947913 18.677736424061077
    vertex -27.00861905535543 41.69552955437883 16.636590264874332
    vertex -26.52345840010419 41.41531099796519 16.636642425810543
  endloop
endfacet
facet normal -0.4713995262683574 0.8165004063142441 0.33333102634264744
  outer loop
    vertex -40.95704089391328 46.415570397379284 8.47199943911405
    vertex -29.409903975024857 56.41546740055301 0.3066239218757371
    vertex -38.07007266971151 51.415360589029575 0.30650433342099836
  endloop
endfacet
facet normal -0.4713995262683574 0.8165004063142441 0.33333102634264744
  outer loop
    vertex -29.409903975024857 56.41546740055301 0.3066239218757371
    vertex -40.95704089391328 46.415570397379284 8.47199943911405
    vertex -23.636487973530713 56.41546740055301 8.471716437688263
  endloop
endfacet
facet normal -0.4713995262683574 0.8165004063142441 0.33333102634264744
  outer loop
    vertex -23.636487973530713 56.41546740055301 8.471716437688263
    vertex -40.95704089391328 46.415570397379284 8.47199943911405
    vertex -23.71817086372464 56.27368171347291 8.702739622825035
  endloop
endfacet
facet normal -0.4713995262683574 0.8165004063142441 0.33333102634264744
  outer loop
    vertex -23.71817086372464 56.27368171347291 8.702739622825035
    vertex -40.95704089391328 46.415570397379284 8.47199943911405
    vertex -35.18371518965731 46.41525759220342 16.63639824859672
  endloop
endfacet
facet normal -0.4713995262683574 0.8165004063142441 0.33333102634264744
  outer loop
    vertex -23.71817086372464 56.27368171347291 8.702739622825035
    vertex -35.18371518965731 46.41525759220342 16.63639824859672
    vertex -26.523333166332996 51.415360589029575 16.636558546849123
  endloop
endfacet
facet normal 0.5773389573240177 -3.8147598420374757e-07 0.8165045795069803
  outer loop
    vertex -26.523333166332996 51.415360589029575 16.636558546849123
    vertex -29.410082744806505 46.4154139947913 18.677736424061077
    vertex -26.52345840010419 41.41531099796519 16.636642425810543
  endloop
endfacet
facet normal -0.5773385168290881 -4.20315702808832e-18 -0.8165048909746891
  outer loop
    vertex -20.749521951700633 11.41561998844354 0.30735022297929304
    vertex -23.63627620225261 16.415726799966976 2.3485314037487384
    vertex -20.749521951700633 21.415825982096 0.30735022297929304
  endloop
endfacet
facet normal 0.8660240696722172 -0.5000023098273507 3.0260280693224806e-05
  outer loop
    vertex -3.429182359955734 51.41520800113879 0.3070265117560869
    vertex -6.315937255519921 46.415726799967 8.471996324394953
    vertex -6.315723281870116 46.415726799967 2.3482484023229184
  endloop
endfacet
facet normal 0.5773389573240492 -3.81476011526891e-07 0.8165045795069581
  outer loop
    vertex -9.202782448322205 41.41561998844356 16.636838433555813
    vertex -12.08953202679571 36.415673394205285 18.678016310767767
    vertex -9.202907682093485 31.415570397379504 16.636922312516962
  endloop
endfacet
facet normal -0.2886884811791645 -0.49998776200004236 0.8164993562059043
  outer loop
    vertex -17.2000622043137 56.03231699214018 16.636686275222452
    vertex -12.089745355433319 56.41515841007433 18.67797560097038
    vertex -17.863162269274802 56.41515459537722 16.63668125002245
  endloop
endfacet
facet normal -0.2886884811791645 -0.49998776200004236 0.8164993562059043
  outer loop
    vertex -12.089745355433319 56.41515841007433 18.67797560097038
    vertex -17.2000622043137 56.03231699214018 16.636686275222452
    vertex -9.20290547972168 51.41520800113899 16.63692542723627
  endloop
endfacet
facet normal -1.512830748076981e-05 0.9999999985988592 5.072884551294986e-05
  outer loop
    vertex -23.636575801062186 56.41515459537717 14.595375163707649
    vertex -18.541325243378424 56.41515841002638 15.67758138675786
    vertex -23.636487973530713 56.41546740055301 8.471716437688263
  endloop
endfacet
facet normal -1.512830748076981e-05 0.9999999985988592 5.072884551294986e-05
  outer loop
    vertex -18.541325243378424 56.41515841002638 15.67758138675786
    vertex -23.636575801062186 56.41515459537717 14.595375163707649
    vertex -17.863162269274802 56.41515459537722 16.63668125002245
  endloop
endfacet
facet normal -0.2886848119415347 0.5000125241688617 0.8164854897844568
  outer loop
    vertex -17.863162269274802 56.41515459537722 16.63668125002245
    vertex -23.636575801062186 56.41515459537717 14.595375163707649
    vertex -26.523333166332996 51.415360589029575 16.636558546849123
  endloop
endfacet
facet normal 0.8660053683533278 -0.5000347001580624 -2.4920957921119937e-05
  outer loop
    vertex -6.315937255519921 46.415726799967 8.471996324394953
    vertex -6.316029755129655 46.41526140690071 14.59565835397204
    vertex -9.202782448322205 41.41561998844356 16.636838433555813
  endloop
endfacet
facet normal 0.8660206795577577 0.5000081799202906 5.0903026615280005e-05
  outer loop
    vertex -6.315937255519921 46.415726799967 8.471996324394953
    vertex -9.20290547972168 51.41520800113899 16.63692542723627
    vertex -6.316029755129655 46.41526140690071 14.59565835397204
  endloop
endfacet
facet normal 0.8660206795577577 0.5000081799202906 5.0903026615280005e-05
  outer loop
    vertex -9.20290547972168 51.41520800113899 16.63692542723627
    vertex -6.315937255519921 46.415726799967 8.471996324394953
    vertex -9.077268621191228 51.19754123014718 16.28140180035209
  endloop
endfacet
facet normal 0.28868786701993226 -0.4999929666443579 -0.8164963862391899
  outer loop
    vertex -3.4289690313181374 31.415722985269728 0.3070672215534733
    vertex -6.315938812879336 26.415623803140715 2.348204577806988
    vertex -12.089353257014164 26.415623803141067 0.30690380858194954
  endloop
endfacet
facet normal -0.28867240226508256 -0.5000124701626173 0.8164899104412647
  outer loop
    vertex -25.559932730965116 39.74651919319998 15.955345820467652
    vertex -17.86316447164661 36.41551699161773 16.63667813530314
    vertex -26.52345840010419 41.41531099796519 16.636642425810543
  endloop
endfacet
facet normal -0.28867240226508256 -0.5000124701626173 0.8164899104412647
  outer loop
    vertex -17.86316447164661 36.41551699161773 16.63667813530314
    vertex -25.559932730965116 39.74651919319998 15.955345820467652
    vertex -23.63658267551216 36.41536440372691 14.595375352546313
  endloop
endfacet
facet normal 0.5773385168290954 1.205808889213196e-14 0.8165048909746838
  outer loop
    vertex -6.316029755129655 46.41526140690071 14.59565835397204
    vertex -9.20290547972168 51.41520800113899 16.63692542723627
    vertex -9.202782448322205 41.41561998844356 16.636838433555813
  endloop
endfacet
facet normal 0.8660155343026595 -0.5000170938967834 1.2549694633276202e-05
  outer loop
    vertex -3.4289690313181374 31.415722985269728 0.3070672215534733
    vertex -6.316027552758133 26.415623803141166 8.471868620916512
    vertex -6.315938812879336 26.415623803140715 2.348204577806988
  endloop
endfacet
facet normal 0.94280153622405 -5.435357114544994e-06 0.33335456088679566
  outer loop
    vertex -3.4289690313181374 31.415722985269728 0.3070672215534733
    vertex -7.090202750336097 27.75656720960228 10.661669059631828
    vertex -6.316027552758133 26.415623803141166 8.471868620916512
  endloop
endfacet
facet normal 0.94280153622405 -5.435357114544994e-06 0.33335456088679566
  outer loop
    vertex -7.090202750336097 27.75656720960228 10.661669059631828
    vertex -3.4289690313181374 31.415722985269728 0.3070672215534733
    vertex -9.202907682093485 31.415570397379504 16.636922312516962
  endloop
endfacet
facet normal 0.94280153622405 -5.435357114544994e-06 0.33335456088679566
  outer loop
    vertex -9.202907682093485 31.415570397379504 16.636922312516962
    vertex -3.4289690313181374 31.415722985269728 0.3070672215534733
    vertex -9.202782448322205 41.41561998844356 16.636838433555813
  endloop
endfacet
facet normal 0.94280153622405 -5.435357114544994e-06 0.33335456088679566
  outer loop
    vertex -9.202782448322205 41.41561998844356 16.636838433555813
    vertex -3.4289690313181374 31.415722985269728 0.3070672215534733
    vertex -3.4289690313181374 41.41561998844356 0.3070672215534733
  endloop
endfacet
facet normal 0.94280153622405 -5.435357114544994e-06 0.33335456088679566
  outer loop
    vertex -9.202782448322205 41.41561998844356 16.636838433555813
    vertex -3.4289690313181374 41.41561998844356 0.3070672215534733
    vertex -6.315937255519921 46.415726799967 8.471996324394953
  endloop
endfacet
facet normal -0.8660161316734598 0.500016059423139 5.412130268275297e-07
  outer loop
    vertex -23.636575801062186 56.41515459537717 14.595375163707649
    vertex -23.71817086372464 56.27368171347291 8.702739622825035
    vertex -26.523333166332996 51.415360589029575 16.636558546849123
  endloop
endfacet
facet normal -0.8660161316734598 0.500016059423139 5.412130268275297e-07
  outer loop
    vertex -23.71817086372464 56.27368171347291 8.702739622825035
    vertex -23.636575801062186 56.41515459537717 14.595375163707649
    vertex -23.636487973530713 56.41546740055301 8.471716437688263
  endloop
endfacet
facet normal -1.617921071188292e-05 8.583014943403109e-07 0.9999999998687483
  outer loop
    vertex -17.86316447164661 36.41551699161773 16.63667813530314
    vertex -26.523333166332996 51.415360589029575 16.636558546849123
    vertex -26.52345840010419 41.41531099796519 16.636642425810543
  endloop
endfacet
facet normal -1.617921071188292e-05 8.583014943403109e-07 0.9999999998687483
  outer loop
    vertex -26.523333166332996 51.415360589029575 16.636558546849123
    vertex -17.86316447164661 36.41551699161773 16.63667813530314
    vertex -17.863162269274802 56.41515459537722 16.63668125002245
  endloop
endfacet
facet normal -1.617921071188292e-05 8.583014943403109e-07 0.9999999998687483
  outer loop
    vertex -17.863162269274802 56.41515459537722 16.63668125002245
    vertex -17.86316447164661 36.41551699161773 16.63667813530314
    vertex -9.202782448322205 41.41561998844356 16.636838433555813
  endloop
endfacet
facet normal -1.617921071188292e-05 8.583014943403109e-07 0.9999999998687483
  outer loop
    vertex -17.863162269274802 56.41515459537722 16.63668125002245
    vertex -9.202782448322205 41.41561998844356 16.636838433555813
    vertex -17.2000622043137 56.03231699214018 16.636686275222452
  endloop
endfacet
facet normal -1.617921071188292e-05 8.583014943403109e-07 0.9999999998687483
  outer loop
    vertex -17.2000622043137 56.03231699214018 16.636686275222452
    vertex -9.202782448322205 41.41561998844356 16.636838433555813
    vertex -9.20290547972168 51.41520800113899 16.63692542723627
  endloop
endfacet
facet normal 0.9428032459627989 8.609801253796031e-06 0.3333497252554463
  outer loop
    vertex -3.429182359955734 51.41520800113879 0.3070265117560869
    vertex -9.077268621191228 51.19754123014718 16.28140180035209
    vertex -6.315937255519921 46.415726799967 8.471996324394953
  endloop
endfacet
facet normal 0.9428032459627989 8.609801253796031e-06 0.3333497252554463
  outer loop
    vertex -9.077268621191228 51.19754123014718 16.28140180035209
    vertex -3.429182359955734 51.41520800113879 0.3070265117560869
    vertex -9.20290547972168 51.41520800113899 16.63692542723627
  endloop
endfacet
facet normal 0.9428032459627989 8.609801253796031e-06 0.3333497252554463
  outer loop
    vertex -9.20290547972168 51.41520800113899 16.63692542723627
    vertex -3.429182359955734 51.41520800113879 0.3070265117560869
    vertex -3.429182359955734 61.41510500431262 0.3070265117560869
  endloop
endfacet
facet normal 0.9428032459627989 8.609801253796031e-06 0.3333497252554463
  outer loop
    vertex -9.20290547972168 51.41520800113899 16.63692542723627
    vertex -3.429182359955734 61.41510500431262 0.3070265117560869
    vertex -9.202995776959803 61.41510500431262 16.636797723758427
  endloop
endfacet
facet normal 0.9428032459627989 8.609801253796031e-06 0.3333497252554463
  outer loop
    vertex -9.202995776959803 61.41510500431262 16.636797723758427
    vertex -3.429182359955734 61.41510500431262 0.3070265117560869
    vertex -6.316150584157528 66.41521181583606 8.471955614597567
  endloop
endfacet
facet normal 0.2887041683227447 -0.5000059429556047 -0.8164826759963429
  outer loop
    vertex -55.390843323474854 21.415516991617277 0.30674039561166094
    vertex -58.277592901948346 16.415570397378996 2.347918272823619
    vertex -64.051225346799 16.415261406900594 0.3065800973596599
  endloop
endfacet
facet normal -0.5773385168290917 3.121681260582153e-18 -0.8165048909746867
  outer loop
    vertex -55.390843323474854 11.41561998844345 0.30674039561166094
    vertex -58.277592901948346 16.415570397378996 2.347918272823619
    vertex -55.390843323474854 21.415516991617277 0.30674039561166094
  endloop
endfacet
facet normal -0.28868615525950964 0.49999970308283564 0.8164928662753634
  outer loop
    vertex -43.844103820096336 21.415516991617277 16.636794609039786
    vertex -52.504270957423486 16.415570397378996 16.636673919399225
    vertex -46.73085339856984 16.415570397378996 18.67797248625174
  endloop
endfacet
facet normal -0.4714040603847149 -0.816498298121462 0.33332977817404835
  outer loop
    vertex -64.051225346799 16.415261406900594 0.3065800973596599
    vertex -75.59823767692843 26.41531099796505 8.47130151687996
    vertex -72.71139404148565 21.4153605890295 0.30646050890492116
  endloop
endfacet
facet normal -0.4714040603847149 -0.816498298121462 0.33332977817404835
  outer loop
    vertex -75.59823767692843 26.41531099796505 8.47130151687996
    vertex -64.051225346799 16.415261406900594 0.3065800973596599
    vertex -58.27768695891763 16.415570397378996 8.471581403586699
  endloop
endfacet
facet normal -0.4714040603847149 -0.816498298121462 0.33332977817404835
  outer loop
    vertex -75.59823767692843 26.41531099796505 8.47130151687996
    vertex -58.27768695891763 16.415570397378996 8.471581403586699
    vertex -69.8248216754343 26.41531099796505 16.636394032692486
  endloop
endfacet
facet normal -0.4714040603847149 -0.816498298121462 0.33332977817404835
  outer loop
    vertex -69.8248216754343 26.41531099796505 16.636394032692486
    vertex -58.27768695891763 16.415570397378996 8.471581403586699
    vertex -61.164654538107136 21.4153605890295 16.636514722333047
  endloop
endfacet
facet normal 5.3517227312742945e-05 -0.9999999985679533 8.220027944349614e-10
  outer loop
    vertex -58.27768695891763 16.415570397378996 8.471581403586699
    vertex -64.051225346799 16.415261406900594 0.3065800973596599
    vertex -58.277592901948346 16.415570397378996 2.347918272823619
  endloop
endfacet
facet normal -0.8660255751074203 0.49999970308283614 -1.3301799784037893e-05
  outer loop
    vertex -72.71139404148565 31.41525759220333 0.30646050890492116
    vertex -75.59814361995915 26.41531099796505 2.3476383861168792
    vertex -75.59823767692843 26.41531099796505 8.47130151687996
  endloop
endfacet
facet normal 0.0 -1.0 0.0
  outer loop
    vertex -40.95725862729405 6.415520806314544 8.471952499878926
    vertex -46.7306746287882 6.415520806314544 0.3068599840663997
    vertex -40.95704465364424 6.415520806314544 2.348204577806892
  endloop
endfacet
facet normal 0.577338516829984 -6.562599395216404e-14 0.8165048909740555
  outer loop
    vertex -61.164654538107136 21.4153605890295 16.636514722333047
    vertex -61.164654538107136 31.41525759220333 16.636514722333047
    vertex -64.05140411658064 26.41531099796505 18.677692599545
  endloop
endfacet
facet normal 0.577338516829984 -6.562599395216404e-14 0.8165048909740555
  outer loop
    vertex -61.164654538107136 31.41525759220333 16.636514722333047
    vertex -61.164654538107136 21.4153605890295 16.636514722333047
    vertex -61.164652980760984 25.992000715204938 16.636513621142374
  endloop
endfacet
facet normal -0.28868621032249936 -0.4999994169776782 0.8164930220103633
  outer loop
    vertex -43.844103820096336 11.41561998844345 16.636794609039786
    vertex -46.73085339856984 16.415570397378996 18.67797248625174
    vertex -52.504270957423486 16.415570397378996 16.636673919399225
  endloop
endfacet
facet normal -0.47141388660551825 -0.8164926249294472 0.3333297780746584
  outer loop
    vertex -46.7306746287882 6.415520806314544 0.3068599840663997
    vertex -58.27768695891763 16.415570397378996 8.471581403586699
    vertex -55.390843323474854 11.41561998844345 0.30674039561166094
  endloop
endfacet
facet normal -0.47141388660551825 -0.8164926249294472 0.3333297780746584
  outer loop
    vertex -58.27768695891763 16.415570397378996 8.471581403586699
    vertex -46.7306746287882 6.415520806314544 0.3068599840663997
    vertex -40.95725862729405 6.415520806314544 8.471952499878926
  endloop
endfacet
facet normal -0.47141388660551825 -0.8164926249294472 0.3333297780746584
  outer loop
    vertex -58.27768695891763 16.415570397378996 8.471581403586699
    vertex -40.95725862729405 6.415520806314544 8.471952499878926
    vertex -52.504270957423486 16.415570397378996 16.636673919399225
  endloop
endfacet
facet normal -0.47141388660551825 -0.8164926249294472 0.3333297780746584
  outer loop
    vertex -52.504270957423486 16.415570397378996 16.636673919399225
    vertex -40.95725862729405 6.415520806314544 8.471952499878926
    vertex -43.844103820096336 11.41561998844345 16.636794609039786
  endloop
endfacet
facet normal 0.288684814255695 -0.4999876789859453 -0.816500703539441
  outer loop
    vertex -38.07029040309226 11.41561998844345 0.30702339703744685
    vertex -40.95704465364424 6.415520806314544 2.348204577806892
    vertex -46.7306746287882 6.415520806314544 0.3068599840663997
  endloop
endfacet
facet normal 0.5773385168290882 -3.122052876125767e-18 0.8165048909746889
  outer loop
    vertex -43.844103820096336 21.415516991617277 16.636794609039786
    vertex -46.73085339856984 16.415570397378996 18.67797248625174
    vertex -43.844103820096336 11.41561998844345 16.636794609039786
  endloop
endfacet
facet normal -0.8660257402901176 -0.4999994169776759 -1.3301802322518768e-05
  outer loop
    vertex -58.277592901948346 16.415570397378996 2.347918272823619
    vertex -55.390843323474854 11.41561998844345 0.30674039561166094
    vertex -58.27768695891763 16.415570397378996 8.471581403586699
  endloop
endfacet
facet normal -0.8660479876697569 -0.49996087693581504 -6.77254413037339e-05
  outer loop
    vertex -61.164654538107136 21.4153605890295 16.636514722333047
    vertex -58.27768695891763 16.415570397378996 8.471581403586699
    vertex -58.27789717283629 16.415105004312622 14.595331339191826
  endloop
endfacet
facet normal 0.5773385168305001 -2.514162974775349e-13 0.8165048909736908
  outer loop
    vertex -43.84422685149593 31.415105004312732 16.636881602720248
    vertex -41.72940153487941 25.078024402798352 15.141519939660695
    vertex -40.957351126903895 26.415158410074454 14.595614529456016
  endloop
endfacet
facet normal 0.5773385168305001 -2.514162974775349e-13 0.8165048909736908
  outer loop
    vertex -41.72940153487941 25.078024402798352 15.141519939660695
    vertex -43.84422685149593 31.415105004312732 16.636881602720248
    vertex -43.844103820096336 21.415516991617277 16.636794609039786
  endloop
endfacet
facet normal 0.0 1.0 0.0
  outer loop
    vertex -58.27780934530485 36.41536440372677 8.471672613172187
    vertex -58.27759537165504 36.41536440372677 2.347924691100152
    vertex -64.051225346799 36.41536440372677 0.3065800973596599
  endloop
endfacet
facet normal 0.28868492437241144 0.49998710679795155 -0.8165010149876786
  outer loop
    vertex -55.39084112110306 31.41525759220333 0.30674351033070707
    vertex -64.051225346799 36.41536440372677 0.3065800973596599
    vertex -58.27759537165504 36.41536440372677 2.347924691100152
  endloop
endfacet
facet normal 0.000107475538980815 -0.9999999913369327 -7.599436201358182e-05
  outer loop
    vertex -52.504270957423486 16.415570397378996 16.636673919399225
    vertex -58.27789717283629 16.415105004312622 14.595331339191826
    vertex -58.27768695891763 16.415570397378996 8.471581403586699
  endloop
endfacet
facet normal 0.5773385168290933 1.0174243690715794e-14 0.8165048909746854
  outer loop
    vertex -23.636584877883966 16.41572679996712 14.595938240678873
    vertex -26.523460602475996 21.415673394205403 16.637205313943102
    vertex -26.52346060247594 11.415619988443687 16.637205313943188
  endloop
endfacet
facet normal -0.2887121361610352 0.5000623708091597 0.8164452999032173
  outer loop
    vertex -35.183717392029116 26.415619988443623 16.63696113672928
    vertex -41.72940153487941 25.078024402798352 15.141519939660695
    vertex -43.844103820096336 21.415516991617277 16.636794609039786
  endloop
endfacet
facet normal -0.2887121361610352 0.5000623708091597 0.8164452999032173
  outer loop
    vertex -41.72940153487941 25.078024402798352 15.141519939660695
    vertex -35.183717392029116 26.415619988443623 16.63696113672928
    vertex -40.957351126903895 26.415158410074454 14.595614529456016
  endloop
endfacet
facet normal -0.2887121361610352 0.5000623708091597 0.8164452999032173
  outer loop
    vertex -40.957351126903895 26.415158410074454 14.595614529456016
    vertex -35.183717392029116 26.415619988443623 16.63696113672928
    vertex -39.049271532420285 26.415310997965097 15.269653315806327
  endloop
endfacet
facet normal -0.28868625129704956 -0.500005045546558 0.8164895607048761
  outer loop
    vertex -35.183717392029 6.415673394205339 16.6369611367295
    vertex -43.844103820096336 11.41561998844345 16.636794609039786
    vertex -40.957130923816365 6.415673394205294 14.595655050414683
  endloop
endfacet
facet normal -1.855015979739187e-05 -2.2769895488578195e-07 0.9999999998279199
  outer loop
    vertex -52.504270957423486 16.415570397378996 16.636673919399225
    vertex -61.164652980760984 25.992000715204938 16.636513621142374
    vertex -61.164654538107136 21.4153605890295 16.636514722333047
  endloop
endfacet
facet normal -1.855015979739187e-05 -2.2769895488578195e-07 0.9999999998279199
  outer loop
    vertex -61.164652980760984 25.992000715204938 16.636513621142374
    vertex -52.504270957423486 16.415570397378996 16.636673919399225
    vertex -52.504483641049056 36.41505159855095 16.636637425506425
  endloop
endfacet
facet normal -1.855015979739187e-05 -2.2769895488578195e-07 0.9999999998279199
  outer loop
    vertex -52.504483641049056 36.41505159855095 16.636637425506425
    vertex -52.504270957423486 16.415570397378996 16.636673919399225
    vertex -43.84422685149593 31.415105004312732 16.636881602720248
  endloop
endfacet
facet normal -1.855015979739187e-05 -2.2769895488578195e-07 0.9999999998279199
  outer loop
    vertex -43.84422685149593 31.415105004312732 16.636881602720248
    vertex -52.504270957423486 16.415570397378996 16.636673919399225
    vertex -43.844103820096336 21.415516991617277 16.636794609039786
  endloop
endfacet
facet normal -1.855015979739187e-05 -2.2769895488578195e-07 0.9999999998279199
  outer loop
    vertex -52.504483641049056 36.41505159855095 16.636637425506425
    vertex -61.164654538107136 31.41525759220333 16.636514722333047
    vertex -61.164652980760984 25.992000715204938 16.636513621142374
  endloop
endfacet
facet normal -0.8660182117887725 0.5000124566503902 6.679736049900089e-06
  outer loop
    vertex -58.277897172836425 36.415051598550896 14.595331339191626
    vertex -59.709381822672775 33.9356010853976 12.520579705620651
    vertex -61.164654538107136 31.41525759220333 16.636514722333047
  endloop
endfacet
facet normal -0.8660182117887725 0.5000124566503902 6.679736049900089e-06
  outer loop
    vertex -59.709381822672775 33.9356010853976 12.520579705620651
    vertex -58.277897172836425 36.415051598550896 14.595331339191626
    vertex -58.27780934530485 36.41536440372677 8.471672613172187
  endloop
endfacet
facet normal -0.5773385168290888 0.0 -0.8165048909746887
  outer loop
    vertex -72.71139404148565 21.4153605890295 0.30646050890492116
    vertex -75.59814361995915 26.41531099796505 2.3476383861168792
    vertex -72.71139404148565 31.41525759220333 0.30646050890492116
  endloop
endfacet
facet normal -2.3055357829969782e-05 3.6184474300921505e-08 0.9999999997342246
  outer loop
    vertex -35.183717392029 6.415673394205339 16.6369611367295
    vertex -43.844103820096336 21.415516991617277 16.636794609039786
    vertex -43.844103820096336 11.41561998844345 16.636794609039786
  endloop
endfacet
facet normal -2.3055357829969782e-05 3.6184474300921505e-08 0.9999999997342246
  outer loop
    vertex -43.844103820096336 21.415516991617277 16.636794609039786
    vertex -35.183717392029 6.415673394205339 16.6369611367295
    vertex -35.183717392029116 26.415619988443623 16.63696113672928
  endloop
endfacet
facet normal -2.3055357829969782e-05 3.6184474300921505e-08 0.9999999997342246
  outer loop
    vertex -35.183717392029116 26.415619988443623 16.63696113672928
    vertex -35.183717392029 6.415673394205339 16.6369611367295
    vertex -27.00862125874613 21.695891951207344 16.637153153006846
  endloop
endfacet
facet normal -2.3055357829969782e-05 3.6184474300921505e-08 0.9999999997342246
  outer loop
    vertex -27.00862125874613 21.695891951207344 16.637153153006846
    vertex -35.183717392029 6.415673394205339 16.6369611367295
    vertex -30.312656253901363 9.227903445833576 16.637083551524217
  endloop
endfacet
facet normal -2.3055357829969782e-05 3.6184474300921505e-08 0.9999999997342246
  outer loop
    vertex -27.00862125874613 21.695891951207344 16.637153153006846
    vertex -30.312656253901363 9.227903445833576 16.637083551524217
    vertex -26.52346060247594 11.415619988443687 16.637205313943188
  endloop
endfacet
facet normal -2.3055357829969782e-05 3.6184474300921505e-08 0.9999999997342246
  outer loop
    vertex -27.00862125874613 21.695891951207344 16.637153153006846
    vertex -26.52346060247594 11.415619988443687 16.637205313943188
    vertex -26.523460602475996 21.415673394205403 16.637205313943102
  endloop
endfacet
facet normal -0.28868621032249925 -0.4999994169776779 0.8164930220103637
  outer loop
    vertex -61.164654538107136 21.4153605890295 16.636514722333047
    vertex -64.05140411658064 26.41531099796505 18.677692599545
    vertex -69.8248216754343 26.41531099796505 16.636394032692486
  endloop
endfacet
facet normal -0.5773200157870356 -1.6021552070524053e-05 -0.81651797231596
  outer loop
    vertex -38.07007487208322 1.4157229852697102 0.30706722155350713
    vertex -40.95704465364424 6.415520806314544 2.348204577806892
    vertex -38.07029040309226 11.41561998844345 0.30702339703744685
  endloop
endfacet
facet normal -0.47141057719033674 0.8164937168579 0.3333317837300323
  outer loop
    vertex -75.59823767692843 26.41531099796505 8.47130151687996
    vertex -64.051225346799 36.41536440372677 0.3065800973596599
    vertex -72.71139404148565 31.41525759220333 0.30646050890492116
  endloop
endfacet
facet normal -0.47141057719033674 0.8164937168579 0.3333317837300323
  outer loop
    vertex -64.051225346799 36.41536440372677 0.3065800973596599
    vertex -75.59823767692843 26.41531099796505 8.47130151687996
    vertex -58.27780934530485 36.41536440372677 8.471672613172187
  endloop
endfacet
facet normal -0.47141057719033674 0.8164937168579 0.3333317837300323
  outer loop
    vertex -58.27780934530485 36.41536440372677 8.471672613172187
    vertex -75.59823767692843 26.41531099796505 8.47130151687996
    vertex -69.8248216754343 26.41531099796505 16.636394032692486
  endloop
endfacet
facet normal -0.47141057719033674 0.8164937168579 0.3333317837300323
  outer loop
    vertex -58.27780934530485 36.41536440372677 8.471672613172187
    vertex -69.8248216754343 26.41531099796505 16.636394032692486
    vertex -59.709381822672775 33.9356010853976 12.520579705620651
  endloop
endfacet
facet normal -0.47141057719033674 0.8164937168579 0.3333317837300323
  outer loop
    vertex -59.709381822672775 33.9356010853976 12.520579705620651
    vertex -69.8248216754343 26.41531099796505 16.636394032692486
    vertex -61.164654538107136 31.41525759220333 16.636514722333047
  endloop
endfacet
facet normal -0.28865332916462855 -0.4999646921289011 0.8165259102971747
  outer loop
    vertex -52.504270957423486 16.415570397378996 16.636673919399225
    vertex -61.164654538107136 21.4153605890295 16.636514722333047
    vertex -58.27789717283629 16.415105004312622 14.595331339191826
  endloop
endfacet
facet normal -0.8660257402901159 -0.4999994169776787 -1.330180232134159e-05
  outer loop
    vertex -75.59814361995915 26.41531099796505 2.3476383861168792
    vertex -72.71139404148565 21.4153605890295 0.30646050890492116
    vertex -75.59823767692843 26.41531099796505 8.47130151687996
  endloop
endfacet
facet normal -0.2886861552595094 0.4999997030828352 0.8164928662753639
  outer loop
    vertex -61.164654538107136 31.41525759220333 16.636514722333047
    vertex -69.8248216754343 26.41531099796505 16.636394032692486
    vertex -64.05140411658064 26.41531099796505 18.677692599545
  endloop
endfacet
facet normal -0.8660010789668103 -0.5000421285220743 3.0519399268874104e-05
  outer loop
    vertex -43.844103820096336 11.41561998844345 16.636794609039786
    vertex -40.95725862729405 6.415520806314544 8.471952499878926
    vertex -40.957130923816365 6.415673394205294 14.595655050414683
  endloop
endfacet
facet normal -0.8660056141330518 -0.50003427419967 -3.0259635826812424e-05
  outer loop
    vertex -40.95704465364424 6.415520806314544 2.348204577806892
    vertex -38.07007487208322 1.4157229852697102 0.30706722155350713
    vertex -40.95725862729405 6.415520806314544 8.471952499878926
  endloop
endfacet
facet normal -1.8060767970624027e-05 0.9999999985322621 5.108115967454826e-05
  outer loop
    vertex -52.504483641049056 36.41505159855095 16.636637425506425
    vertex -58.27780934530485 36.41536440372677 8.471672613172187
    vertex -58.277897172836425 36.415051598550896 14.595331339191626
  endloop
endfacet
facet normal -8.810177305817994e-06 -0.9999999996507427 2.491777066701522e-05
  outer loop
    vertex -35.183717392029 6.415673394205339 16.6369611367295
    vertex -40.957130923816365 6.415673394205294 14.595655050414683
    vertex -40.95725862729405 6.415520806314544 8.471952499878926
  endloop
endfacet
facet normal -0.2886848119415379 0.5000125241688533 0.816485489784461
  outer loop
    vertex -52.504483641049056 36.41505159855095 16.636637425506425
    vertex -58.277897172836425 36.415051598550896 14.595331339191626
    vertex -61.164654538107136 31.41525759220333 16.636514722333047
  endloop
endfacet
facet normal -0.866018664584471 0.5000116715394316 -3.0260091830772195e-05
  outer loop
    vertex -55.390625590094075 41.415463585855846 0.3067873348467843
    vertex -58.27759537165504 36.41536440372677 2.347924691100152
    vertex -58.27780934530485 36.41536440372677 8.471672613172187
  endloop
endfacet
facet normal -0.28871163876916445 0.5000085307246559 0.8164784497105814
  outer loop
    vertex -43.843886086715564 41.415463585855846 16.636841548274912
    vertex -52.504483641049056 36.41505159855095 16.636637425506425
    vertex -46.73063566518908 36.415516991617565 18.678019425486863
  endloop
endfacet
facet normal 2.4371797962900352e-06 0.9999999999734273 6.870643938065741e-06
  outer loop
    vertex -40.95704089391328 46.415570397379284 8.47199943911405
    vertex -40.95682692026347 46.415570397379284 2.3482515170420153
    vertex -46.73045689540743 46.415570397379284 0.306906923301523
  endloop
endfacet
facet normal 2.4371797962900352e-06 0.9999999999734273 6.870643938065741e-06
  outer loop
    vertex -40.95682692026347 46.415570397379284 2.3482515170420153
    vertex -40.95704089391328 46.415570397379284 8.47199943911405
    vertex -40.95688942403073 46.41541399478553 6.721225092859204
  endloop
endfacet
facet normal 0.288684814255695 -0.49998767898594504 -0.8165007035394413
  outer loop
    vertex -20.749521951700633 1.4157229852697102 0.30735022297929304
    vertex -23.63627620225261 -3.5843761968591954 2.3485314037487384
    vertex -29.409906177396568 -3.5843761968591954 0.3071868100082459
  endloop
endfacet
facet normal -0.28865497282777863 -0.49993070109764903 0.8165461412325747
  outer loop
    vertex -43.84422685149593 31.415105004312732 16.636881602720248
    vertex -46.73063566518908 36.415516991617565 18.678019425486863
    vertex -52.504483641049056 36.41505159855095 16.636637425506425
  endloop
endfacet
facet normal -0.28868600782835724 0.49998505329762083 0.8165018893812194
  outer loop
    vertex -29.410084947178216 6.415673394205255 18.678299312193587
    vertex -30.312656253901363 9.227903445833576 16.637083551524217
    vertex -35.183717392029 6.415673394205339 16.6369611367295
  endloop
endfacet
facet normal -0.28868600782835724 0.49998505329762083 0.8165018893812194
  outer loop
    vertex -30.312656253901363 9.227903445833576 16.637083551524217
    vertex -29.410084947178216 6.415673394205255 18.678299312193587
    vertex -26.52346060247594 11.415619988443687 16.637205313943188
  endloop
endfacet
facet normal -0.28868192442765594 -0.4999979322817251 0.8164954465413414
  outer loop
    vertex -26.523335368704704 1.4157229852697102 16.637121434981633
    vertex -29.410084947178216 6.415673394205255 18.678299312193587
    vertex -35.183717392029 6.415673394205339 16.6369611367295
  endloop
endfacet
facet normal -0.47140455563877465 -0.8164990753884014 0.3333271738291004
  outer loop
    vertex -29.409906177396568 -3.5843761968591954 0.3071868100082459
    vertex -40.95725862729405 6.415520806314544 8.471952499878926
    vertex -38.07007487208322 1.4157229852697102 0.30706722155350713
  endloop
endfacet
facet normal -0.47140455563877465 -0.8164990753884014 0.3333271738291004
  outer loop
    vertex -40.95725862729405 6.415520806314544 8.471952499878926
    vertex -29.409906177396568 -3.5843761968591954 0.3071868100082459
    vertex -23.636490175902427 -3.5843761968591954 8.472279325820772
  endloop
endfacet
facet normal -0.47140455563877465 -0.8164990753884014 0.3333271738291004
  outer loop
    vertex -40.95725862729405 6.415520806314544 8.471952499878926
    vertex -23.636490175902427 -3.5843761968591954 8.472279325820772
    vertex -35.183717392029 6.415673394205339 16.6369611367295
  endloop
endfacet
facet normal -0.47140455563877465 -0.8164990753884014 0.3333271738291004
  outer loop
    vertex -35.183717392029 6.415673394205339 16.6369611367295
    vertex -23.636490175902427 -3.5843761968591954 8.472279325820772
    vertex -26.262776229728313 0.9640940028266126 15.899575817996354
  endloop
endfacet
facet normal -0.47140455563877465 -0.8164990753884014 0.3333271738291004
  outer loop
    vertex -35.183717392029 6.415673394205339 16.6369611367295
    vertex -26.262776229728313 0.9640940028266126 15.899575817996354
    vertex -26.523335368704704 1.4157229852697102 16.637121434981633
  endloop
endfacet
facet normal 0.0 -1.0 0.0
  outer loop
    vertex -23.636490175902427 -3.5843761968591954 8.472279325820772
    vertex -29.409906177396568 -3.5843761968591954 0.3071868100082459
    vertex -23.63627620225261 -3.5843761968591954 2.3485314037487384
  endloop
endfacet
facet normal -0.4714145201270913 0.8164899479425906 0.3333354393430889
  outer loop
    vertex -58.27780934530485 36.41536440372677 8.471672613172187
    vertex -46.73045689540743 46.415570397379284 0.306906923301523
    vertex -55.390625590094075 41.415463585855846 0.3067873348467843
  endloop
endfacet
facet normal -0.4714145201270913 0.8164899479425906 0.3333354393430889
  outer loop
    vertex -46.73045689540743 46.415570397379284 0.306906923301523
    vertex -58.27780934530485 36.41536440372677 8.471672613172187
    vertex -40.95704089391328 46.415570397379284 8.47199943911405
  endloop
endfacet
facet normal -0.4714145201270913 0.8164899479425906 0.3333354393430889
  outer loop
    vertex -40.95704089391328 46.415570397379284 8.47199943911405
    vertex -58.27780934530485 36.41536440372677 8.471672613172187
    vertex -52.504483641049056 36.41505159855095 16.636637425506425
  endloop
endfacet
facet normal -0.4714145201270913 0.8164899479425906 0.3333354393430889
  outer loop
    vertex -40.95704089391328 46.415570397379284 8.47199943911405
    vertex -52.504483641049056 36.41505159855095 16.636637425506425
    vertex -43.843886086715564 41.415463585855846 16.636841548274912
  endloop
endfacet
facet normal -0.5773200163304573 1.6021057037853754e-05 -0.8165179719317429
  outer loop
    vertex -55.390625590094075 41.415463585855846 0.3067873348467843
    vertex -55.39084112110306 31.41525759220333 0.30674351033070707
    vertex -58.27759537165504 36.41536440372677 2.347924691100152
  endloop
endfacet
facet normal 0.28868492437241156 0.4999871067979517 -0.8165010149876781
  outer loop
    vertex -20.749521951700633 31.41572298526983 0.30735022297929304
    vertex -29.409906177396568 36.41582979679327 0.3071868100082459
    vertex -23.63627620225261 36.41582979679327 2.3485314037487384
  endloop
endfacet
facet normal 0.28868456259554864 -0.5000028422349783 -0.8164915070445988
  outer loop
    vertex -46.7306746287882 26.415623803140715 0.3068599840663997
    vertex -39.25900610432831 29.35645441917775 1.1477428890186412
    vertex -40.95704465364424 26.415623803140715 2.348204577806892
  endloop
endfacet
facet normal 0.28868456259554864 -0.5000028422349783 -0.8164915070445988
  outer loop
    vertex -39.25900610432831 29.35645441917775 1.1477428890186412
    vertex -46.7306746287882 26.415623803140715 0.3068599840663997
    vertex -38.07007266971149 31.415566582682015 0.3070703362725702
  endloop
endfacet
facet normal 0.28868492437241144 0.49998710679795166 -0.8165010149876785
  outer loop
    vertex -38.07007266971149 41.415463585855846 0.3070703362725702
    vertex -46.73045689540743 46.415570397379284 0.306906923301523
    vertex -40.95682692026347 46.415570397379284 2.3482515170420153
  endloop
endfacet
facet normal 0.5773838085163904 -2.3696333492442583e-05 0.8164728636651631
  outer loop
    vertex -43.84422685149593 31.415105004312732 16.636881602720248
    vertex -43.843886086715564 41.415463585855846 16.636841548274912
    vertex -46.73063566518908 36.415516991617565 18.678019425486863
  endloop
endfacet
facet normal 0.5773838085163904 -2.3696333492442583e-05 0.8164728636651631
  outer loop
    vertex -43.843886086715564 41.415463585855846 16.636841548274912
    vertex -43.84422685149593 31.415105004312732 16.636881602720248
    vertex -43.84388452924022 34.81706610923028 16.63627444427831
  endloop
endfacet
facet normal 0.2886849243724243 0.49998710679795616 -0.816501014987671
  outer loop
    vertex -20.749521951700633 11.41561998844354 0.30735022297929304
    vertex -29.409906177396667 16.415726799966958 0.3071868100080908
    vertex -23.63627620225261 16.415726799966976 2.3485314037487384
  endloop
endfacet
facet normal 0.5773389573310653 3.814817964878192e-07 0.8165045795019971
  outer loop
    vertex -26.523335368704704 1.4157229852697102 16.637121434981633
    vertex -26.52346060247594 11.415619988443687 16.637205313943188
    vertex -29.410084947178216 6.415673394205255 18.678299312193587
  endloop
endfacet
facet normal 0.0 -1.0 0.0
  outer loop
    vertex -6.315937255519921 -13.584582190511387 8.471996324394953
    vertex -12.089353257014073 -13.584582190511387 0.3069038085824261
    vertex -6.315723281870116 -13.584582190511387 2.3482484023229184
  endloop
endfacet
facet normal 0.8660348291792319 -0.49998367346623585 3.026065664790689e-05
  outer loop
    vertex -3.4289690313181374 -8.584483008382483 0.3070672215534733
    vertex -6.315937255519921 -13.584582190511387 8.471996324394953
    vertex -6.315723281870116 -13.584582190511387 2.3482484023229184
  endloop
endfacet
facet normal -0.28867810876328903 -0.49999661047150645 0.816497605041102
  outer loop
    vertex -9.202782448322205 -8.584483008382483 16.636838433555813
    vertex -12.08953202679571 -3.5845325994469377 18.678016310767767
    vertex -17.863380002655468 -3.584532599446853 16.63663431078751
  endloop
endfacet
facet normal -1.0584558007728446e-05 2.6709249907273997e-05 0.9999999995872917
  outer loop
    vertex -35.183717392029116 26.415619988443623 16.63696113672928
    vertex -43.84388452924022 34.81706610923028 16.63627444427831
    vertex -43.84422685149593 31.415105004312732 16.636881602720248
  endloop
endfacet
facet normal -1.0584558007728446e-05 2.6709249907273997e-05 0.9999999995872917
  outer loop
    vertex -43.84388452924022 34.81706610923028 16.63627444427831
    vertex -35.18371518965731 46.41525759220342 16.63639824859672
    vertex -43.843886086715564 41.415463585855846 16.636841548274912
  endloop
endfacet
facet normal -1.0584558007728446e-05 2.6709249907273997e-05 0.9999999995872917
  outer loop
    vertex -35.18371518965731 46.41525759220342 16.63639824859672
    vertex -43.84388452924022 34.81706610923028 16.63627444427831
    vertex -35.183717392029116 26.415619988443623 16.63696113672928
  endloop
endfacet
facet normal -1.0584558007728446e-05 2.6709249907273997e-05 0.9999999995872917
  outer loop
    vertex -35.18371518965731 46.41525759220342 16.63639824859672
    vertex -35.183717392029116 26.415619988443623 16.63696113672928
    vertex -26.523335368704704 31.41572298526983 16.637121434981633
  endloop
endfacet
facet normal -1.0584558007728446e-05 2.6709249907273997e-05 0.9999999995872917
  outer loop
    vertex -35.18371518965731 46.41525759220342 16.63639824859672
    vertex -26.523335368704704 31.41572298526983 16.637121434981633
    vertex -27.00861905535543 41.69552955437883 16.636590264874332
  endloop
endfacet
facet normal -1.0584558007728446e-05 2.6709249907273997e-05 0.9999999995872917
  outer loop
    vertex -27.00861905535543 41.69552955437883 16.636590264874332
    vertex -26.523335368704704 31.41572298526983 16.637121434981633
    vertex -26.52345840010419 41.41531099796519 16.636642425810543
  endloop
endfacet
facet normal -1.8062437454775736e-05 0.9999999985319905 5.1085881469137193e-05
  outer loop
    vertex -35.18371518965731 46.41525759220342 16.63639824859672
    vertex -40.95704089391328 46.415570397379284 8.47199943911405
    vertex -40.9571287214447 46.41525759220337 14.595092162281922
  endloop
endfacet
facet normal 0.28868481425569525 -0.4999876789859453 -0.8165007035394409
  outer loop
    vertex -3.4289690313181374 -8.584483008382483 0.3070672215534733
    vertex -6.315723281870116 -13.584582190511387 2.3482484023229184
    vertex -12.089353257014073 -13.584582190511387 0.3069038085824261
  endloop
endfacet
facet normal -0.2886818375613956 0.499977234548269 0.8165081515794204
  outer loop
    vertex -9.203123213102401 1.4154139947914939 16.636878488001198
    vertex -17.863380002655468 -3.584532599446853 16.63663431078751
    vertex -12.08953202679571 -3.5845325994469377 18.678016310767767
  endloop
endfacet
facet normal 0.8660428031046867 0.49996985687761053 7.351434242597024e-05
  outer loop
    vertex -6.315723281870116 6.415520806314784 2.3482484023229184
    vertex -6.316089605219635 6.415520806314697 6.663755961475527
    vertex -3.4289690313181374 1.4154139947913473 0.3070672215534733
  endloop
endfacet
facet normal 0.8660428031046867 0.49996985687761053 7.351434242597024e-05
  outer loop
    vertex -6.316243083767105 6.415520806314874 8.471824796400663
    vertex -3.4289690313181374 1.4154139947913473 0.3070672215534733
    vertex -6.316089605219635 6.415520806314697 6.663755961475527
  endloop
endfacet
facet normal -0.577391877309007 4.621132197123879e-05 -0.8164671566463005
  outer loop
    vertex -20.749521951700633 1.4157229852697102 0.30735022297929304
    vertex -20.74952195170071 -8.584483008382483 0.30678422012768736
    vertex -23.63627620225261 -3.5843761968591954 2.3485314037487384
  endloop
endfacet
facet normal 0.2886811086406426 0.49998578498979757 -0.8165031734917786
  outer loop
    vertex -3.4289690313181374 1.4154139947913473 0.3070672215534733
    vertex -12.089568788023126 6.415520806314767 0.30685998406610077
    vertex -6.315723281870116 6.415520806314784 2.3482484023229184
  endloop
endfacet
facet normal -0.8660351609998371 -0.49998309871062474 -3.026066824218886e-05
  outer loop
    vertex -23.63627620225261 -3.5843761968591954 2.3485314037487384
    vertex -20.74952195170071 -8.584483008382483 0.30678422012768736
    vertex -23.636490175902427 -3.5843761968591954 8.472279325820772
  endloop
endfacet
facet normal 6.85473329619835e-06 -3.938300238294091e-06 -0.9999999999687512
  outer loop
    vertex -29.409906177396568 36.41582979679327 0.3071868100082459
    vertex -20.749521951700633 21.415825982096 0.30735022297929304
    vertex -29.409906177396667 16.415726799966958 0.3071868100080908
  endloop
endfacet
facet normal 6.85473329619835e-06 -3.938300238294091e-06 -0.9999999999687512
  outer loop
    vertex -20.749521951700633 21.415825982096 0.30735022297929304
    vertex -29.409906177396568 36.41582979679327 0.3071868100082459
    vertex -20.749521951700633 31.41572298526983 0.30735022297929304
  endloop
endfacet
facet normal 6.85473329619835e-06 -3.938300238294091e-06 -0.9999999999687512
  outer loop
    vertex -20.749521951700633 21.415825982096 0.30735022297929304
    vertex -20.749521951700633 31.41572298526983 0.30735022297929304
    vertex -20.74951974932893 41.41546358585575 0.3067873348467843
  endloop
endfacet
facet normal 6.85473329619835e-06 -3.938300238294091e-06 -0.9999999999687512
  outer loop
    vertex -20.749521951700633 21.415825982096 0.30735022297929304
    vertex -20.74951974932893 41.41546358585575 0.3067873348467843
    vertex -20.749521951700633 11.41561998844354 0.30735022297929304
  endloop
endfacet
facet normal 6.85473329619835e-06 -3.938300238294091e-06 -0.9999999999687512
  outer loop
    vertex -20.749521951700633 11.41561998844354 0.30735022297929304
    vertex -20.74951974932893 41.41546358585575 0.3067873348467843
    vertex -20.749521951700633 1.4157229852697102 0.30735022297929304
  endloop
endfacet
facet normal 6.85473329619835e-06 -3.938300238294091e-06 -0.9999999999687512
  outer loop
    vertex -12.08956658565167 66.41521181583606 0.30686309878503976
    vertex -20.74951974932893 51.415360589029575 0.3067873348467843
    vertex -20.749735280338317 61.41510500431262 0.306743510330301
  endloop
endfacet
facet normal 6.85473329619835e-06 -3.938300238294091e-06 -0.9999999999687512
  outer loop
    vertex -20.74951974932893 51.415360589029575 0.3067873348467843
    vertex -12.08956658565167 66.41521181583606 0.30686309878503976
    vertex -20.74951974932893 41.41546358585575 0.3067873348467843
  endloop
endfacet
facet normal 6.85473329619835e-06 -3.938300238294091e-06 -0.9999999999687512
  outer loop
    vertex -20.74951974932893 41.41546358585575 0.3067873348467843
    vertex -12.08956658565167 66.41521181583606 0.30686309878503976
    vertex -12.089568788023126 6.415520806314767 0.30685998406610077
  endloop
endfacet
facet normal 6.85473329619835e-06 -3.938300238294091e-06 -0.9999999999687512
  outer loop
    vertex -12.089568788023126 6.415520806314767 0.30685998406610077
    vertex -12.08956658565167 66.41521181583606 0.30686309878503976
    vertex -12.089353257014164 26.415623803141067 0.30690380858194954
  endloop
endfacet
facet normal 6.85473329619835e-06 -3.938300238294091e-06 -0.9999999999687512
  outer loop
    vertex -12.089568788023126 6.415520806314767 0.30685998406610077
    vertex -12.089353257014164 26.415623803141067 0.30690380858194954
    vertex -3.4291845623273693 11.41561998844345 0.3070233970375427
  endloop
endfacet
facet normal 6.85473329619835e-06 -3.938300238294091e-06 -0.9999999999687512
  outer loop
    vertex -3.4291845623273693 11.41561998844345 0.3070233970375427
    vertex -12.089353257014164 26.415623803141067 0.30690380858194954
    vertex -3.4291845623273693 21.415516991617277 0.3070233970375427
  endloop
endfacet
facet normal 6.85473329619835e-06 -3.938300238294091e-06 -0.9999999999687512
  outer loop
    vertex -20.749521951700633 1.4157229852697102 0.30735022297929304
    vertex -12.089353257014073 -13.584582190511387 0.3069038085824261
    vertex -20.74952195170071 -8.584483008382483 0.30678422012768736
  endloop
endfacet
facet normal 6.85473329619835e-06 -3.938300238294091e-06 -0.9999999999687512
  outer loop
    vertex -12.089353257014073 -13.584582190511387 0.3069038085824261
    vertex -20.749521951700633 1.4157229852697102 0.30735022297929304
    vertex -20.74951974932893 41.41546358585575 0.3067873348467843
  endloop
endfacet
facet normal 6.85473329619835e-06 -3.938300238294091e-06 -0.9999999999687512
  outer loop
    vertex -12.089353257014073 -13.584582190511387 0.3069038085824261
    vertex -20.74951974932893 41.41546358585575 0.3067873348467843
    vertex -12.089568788023126 6.415520806314767 0.30685998406610077
  endloop
endfacet
facet normal 6.85473329619835e-06 -3.938300238294091e-06 -0.9999999999687512
  outer loop
    vertex -12.089353257014073 -13.584582190511387 0.3069038085824261
    vertex -12.089568788023126 6.415520806314767 0.30685998406610077
    vertex -3.4289690313181374 1.4154139947913473 0.3070672215534733
  endloop
endfacet
facet normal 6.85473329619835e-06 -3.938300238294091e-06 -0.9999999999687512
  outer loop
    vertex -12.089353257014073 -13.584582190511387 0.3069038085824261
    vertex -3.4289690313181374 1.4154139947913473 0.3070672215534733
    vertex -3.4289690313181374 -8.584483008382483 0.3070672215534733
  endloop
endfacet
facet normal 6.85473329619835e-06 -3.938300238294091e-06 -0.9999999999687512
  outer loop
    vertex -29.409903975024857 56.41546740055301 0.3066239218757371
    vertex -38.07007266971149 41.415463585855846 0.3070703362725702
    vertex -38.07007266971151 51.415360589029575 0.30650433342099836
  endloop
endfacet
facet normal 6.85473329619835e-06 -3.938300238294091e-06 -0.9999999999687512
  outer loop
    vertex -38.07007266971149 41.415463585855846 0.3070703362725702
    vertex -29.409903975024857 56.41546740055301 0.3066239218757371
    vertex -38.07007266971149 31.415566582682015 0.3070703362725702
  endloop
endfacet
facet normal 6.85473329619835e-06 -3.938300238294091e-06 -0.9999999999687512
  outer loop
    vertex -38.07007266971149 31.415566582682015 0.3070703362725702
    vertex -29.409903975024857 56.41546740055301 0.3066239218757371
    vertex -29.409906177396568 36.41582979679327 0.3071868100082459
  endloop
endfacet
facet normal 6.85473329619835e-06 -3.938300238294091e-06 -0.9999999999687512
  outer loop
    vertex -38.07007266971149 31.415566582682015 0.3070703362725702
    vertex -29.409906177396568 36.41582979679327 0.3071868100082459
    vertex -29.409906177396667 16.415726799966958 0.3071868100080908
  endloop
endfacet
facet normal 6.85473329619835e-06 -3.938300238294091e-06 -0.9999999999687512
  outer loop
    vertex -29.409906177396568 36.41582979679327 0.3071868100082459
    vertex -29.409903975024857 56.41546740055301 0.3066239218757371
    vertex -20.74951974932893 41.41546358585575 0.3067873348467843
  endloop
endfacet
facet normal 6.85473329619835e-06 -3.938300238294091e-06 -0.9999999999687512
  outer loop
    vertex -20.74951974932893 41.41546358585575 0.3067873348467843
    vertex -29.409903975024857 56.41546740055301 0.3066239218757371
    vertex -20.74951974932893 51.415360589029575 0.3067873348467843
  endloop
endfacet
facet normal 6.85473329619835e-06 -3.938300238294091e-06 -0.9999999999687512
  outer loop
    vertex -64.051225346799 36.41536440372677 0.3065800973596599
    vertex -72.71139404148565 21.4153605890295 0.30646050890492116
    vertex -72.71139404148565 31.41525759220333 0.30646050890492116
  endloop
endfacet
facet normal 6.85473329619835e-06 -3.938300238294091e-06 -0.9999999999687512
  outer loop
    vertex -72.71139404148565 21.4153605890295 0.30646050890492116
    vertex -64.051225346799 36.41536440372677 0.3065800973596599
    vertex -64.051225346799 16.415261406900594 0.3065800973596599
  endloop
endfacet
facet normal 6.85473329619835e-06 -3.938300238294091e-06 -0.9999999999687512
  outer loop
    vertex -64.051225346799 16.415261406900594 0.3065800973596599
    vertex -64.051225346799 36.41536440372677 0.3065800973596599
    vertex -55.39084112110306 31.41525759220333 0.30674351033070707
  endloop
endfacet
facet normal 6.85473329619835e-06 -3.938300238294091e-06 -0.9999999999687512
  outer loop
    vertex -64.051225346799 16.415261406900594 0.3065800973596599
    vertex -55.39084112110306 31.41525759220333 0.30674351033070707
    vertex -55.390843323474854 21.415516991617277 0.30674039561166094
  endloop
endfacet
facet normal 6.85473329619835e-06 -3.938300238294091e-06 -0.9999999999687512
  outer loop
    vertex -55.390843323474854 21.415516991617277 0.30674039561166094
    vertex -55.39084112110306 31.41525759220333 0.30674351033070707
    vertex -55.390843323474854 11.41561998844345 0.30674039561166094
  endloop
endfacet
facet normal 6.85473329619835e-06 -3.938300238294091e-06 -0.9999999999687512
  outer loop
    vertex -55.390843323474854 11.41561998844345 0.30674039561166094
    vertex -55.39084112110306 31.41525759220333 0.30674351033070707
    vertex -46.7306746287882 6.415520806314544 0.3068599840663997
  endloop
endfacet
facet normal 6.85473329619835e-06 -3.938300238294091e-06 -0.9999999999687512
  outer loop
    vertex -46.7306746287882 6.415520806314544 0.3068599840663997
    vertex -55.39084112110306 31.41525759220333 0.30674351033070707
    vertex -55.390625590094075 41.415463585855846 0.3067873348467843
  endloop
endfacet
facet normal 6.85473329619835e-06 -3.938300238294091e-06 -0.9999999999687512
  outer loop
    vertex -46.7306746287882 6.415520806314544 0.3068599840663997
    vertex -55.390625590094075 41.415463585855846 0.3067873348467843
    vertex -46.7306746287882 26.415623803140715 0.3068599840663997
  endloop
endfacet
facet normal 6.85473329619835e-06 -3.938300238294091e-06 -0.9999999999687512
  outer loop
    vertex -46.7306746287882 6.415520806314544 0.3068599840663997
    vertex -46.7306746287882 26.415623803140715 0.3068599840663997
    vertex -38.07029040309226 21.415516991617277 0.30702339703744685
  endloop
endfacet
facet normal 6.85473329619835e-06 -3.938300238294091e-06 -0.9999999999687512
  outer loop
    vertex -46.7306746287882 6.415520806314544 0.3068599840663997
    vertex -38.07029040309226 21.415516991617277 0.30702339703744685
    vertex -38.07029040309226 11.41561998844345 0.30702339703744685
  endloop
endfacet
facet normal 6.85473329619835e-06 -3.938300238294091e-06 -0.9999999999687512
  outer loop
    vertex -38.07029040309226 11.41561998844345 0.30702339703744685
    vertex -38.07029040309226 21.415516991617277 0.30702339703744685
    vertex -38.07007266971149 31.415566582682015 0.3070703362725702
  endloop
endfacet
facet normal 6.85473329619835e-06 -3.938300238294091e-06 -0.9999999999687512
  outer loop
    vertex -38.07029040309226 11.41561998844345 0.30702339703744685
    vertex -38.07007266971149 31.415566582682015 0.3070703362725702
    vertex -38.07007487208322 1.4157229852697102 0.30706722155350713
  endloop
endfacet
facet normal 6.85473329619835e-06 -3.938300238294091e-06 -0.9999999999687512
  outer loop
    vertex -38.07007487208322 1.4157229852697102 0.30706722155350713
    vertex -38.07007266971149 31.415566582682015 0.3070703362725702
    vertex -29.409906177396568 -3.5843761968591954 0.3071868100082459
  endloop
endfacet
facet normal 6.85473329619835e-06 -3.938300238294091e-06 -0.9999999999687512
  outer loop
    vertex -29.409906177396568 -3.5843761968591954 0.3071868100082459
    vertex -38.07007266971149 31.415566582682015 0.3070703362725702
    vertex -29.409906177396667 16.415726799966958 0.3071868100080908
  endloop
endfacet
facet normal 6.85473329619835e-06 -3.938300238294091e-06 -0.9999999999687512
  outer loop
    vertex -29.409906177396568 -3.5843761968591954 0.3071868100082459
    vertex -29.409906177396667 16.415726799966958 0.3071868100080908
    vertex -20.749521951700633 11.41561998844354 0.30735022297929304
  endloop
endfacet
facet normal 6.85473329619835e-06 -3.938300238294091e-06 -0.9999999999687512
  outer loop
    vertex -29.409906177396568 -3.5843761968591954 0.3071868100082459
    vertex -20.749521951700633 11.41561998844354 0.30735022297929304
    vertex -20.749521951700633 1.4157229852697102 0.30735022297929304
  endloop
endfacet
facet normal 6.85473329619835e-06 -3.938300238294091e-06 -0.9999999999687512
  outer loop
    vertex -46.73045689540743 46.415570397379284 0.306906923301523
    vertex -46.7306746287882 26.415623803140715 0.3068599840663997
    vertex -55.390625590094075 41.415463585855846 0.3067873348467843
  endloop
endfacet
facet normal 6.85473329619835e-06 -3.938300238294091e-06 -0.9999999999687512
  outer loop
    vertex -46.7306746287882 26.415623803140715 0.3068599840663997
    vertex -46.73045689540743 46.415570397379284 0.306906923301523
    vertex -38.07007266971149 31.415566582682015 0.3070703362725702
  endloop
endfacet
facet normal 6.85473329619835e-06 -3.938300238294091e-06 -0.9999999999687512
  outer loop
    vertex -38.07007266971149 31.415566582682015 0.3070703362725702
    vertex -46.73045689540743 46.415570397379284 0.306906923301523
    vertex -38.07007266971149 41.415463585855846 0.3070703362725702
  endloop
endfacet
facet normal 6.85473329619835e-06 -3.938300238294091e-06 -0.9999999999687512
  outer loop
    vertex -12.08956658565167 66.41521181583606 0.30686309878503976
    vertex -12.089353257014073 46.415726799967 0.3069038085824261
    vertex -12.089353257014164 26.415623803141067 0.30690380858194954
  endloop
endfacet
facet normal 6.85473329619835e-06 -3.938300238294091e-06 -0.9999999999687512
  outer loop
    vertex -12.089353257014073 46.415726799967 0.3069038085824261
    vertex -12.08956658565167 66.41521181583606 0.30686309878503976
    vertex -3.429182359955734 61.41510500431262 0.3070265117560869
  endloop
endfacet
facet normal 6.85473329619835e-06 -3.938300238294091e-06 -0.9999999999687512
  outer loop
    vertex -12.089353257014073 46.415726799967 0.3069038085824261
    vertex -3.429182359955734 61.41510500431262 0.3070265117560869
    vertex -3.429182359955734 51.41520800113879 0.3070265117560869
  endloop
endfacet
facet normal 6.85473329619835e-06 -3.938300238294091e-06 -0.9999999999687512
  outer loop
    vertex -12.089353257014073 46.415726799967 0.3069038085824261
    vertex -3.4289690313181374 31.415722985269728 0.3070672215534733
    vertex -12.089353257014164 26.415623803141067 0.30690380858194954
  endloop
endfacet
facet normal 6.85473329619835e-06 -3.938300238294091e-06 -0.9999999999687512
  outer loop
    vertex -3.4289690313181374 31.415722985269728 0.3070672215534733
    vertex -12.089353257014073 46.415726799967 0.3069038085824261
    vertex -3.4289690313181374 41.41561998844356 0.3070672215534733
  endloop
endfacet
facet normal -0.2886714696683903 0.5000818410289489 0.8164477539148409
  outer loop
    vertex -35.18371518965731 46.41525759220342 16.63639824859672
    vertex -40.9571287214447 46.41525759220337 14.595092162281922
    vertex -43.843886086715564 41.415463585855846 16.636841548274912
  endloop
endfacet
facet normal 0.5773574585895288 1.640406629603005e-05 0.8164914970420373
  outer loop
    vertex -9.202782448322205 -8.584483008382483 16.636838433555813
    vertex -9.203123213102401 1.4154139947914939 16.636878488001198
    vertex -12.08953202679571 -3.5845325994469377 18.678016310767767
  endloop
endfacet
facet normal 0.5774014868012957 3.7927084348545765e-05 0.8164603613165734
  outer loop
    vertex -26.523335368704704 31.41572298526983 16.637121434981633
    vertex -25.559932730965116 39.74651919319998 15.955345820467652
    vertex -26.52345840010419 41.41531099796519 16.636642425810543
  endloop
endfacet
facet normal 0.5774014868012957 3.7927084348545765e-05 0.8164603613165734
  outer loop
    vertex -25.559932730965116 39.74651919319998 15.955345820467652
    vertex -26.523335368704704 31.41572298526983 16.637121434981633
    vertex -25.02787880209937 34.00574278401025 15.5791402399925
  endloop
endfacet
facet normal 0.5774014868012957 3.7927084348545765e-05 0.8164603613165734
  outer loop
    vertex -25.559932730965116 39.74651919319998 15.955345820467652
    vertex -25.02787880209937 34.00574278401025 15.5791402399925
    vertex -23.63658267551216 36.41536440372691 14.595375352546313
  endloop
endfacet
facet normal 0.8660153458151721 0.5000174204880699 4.591831566252412e-06
  outer loop
    vertex -7.090202750336097 27.75656720960228 10.661669059631828
    vertex -6.316031957501459 26.415623803141223 14.59565523925273
    vertex -6.316027552758133 26.415623803141166 8.471868620916512
  endloop
endfacet
facet normal 0.8660153458151721 0.5000174204880699 4.591831566252412e-06
  outer loop
    vertex -6.316031957501459 26.415623803141223 14.59565523925273
    vertex -7.090202750336097 27.75656720960228 10.661669059631828
    vertex -9.202907682093485 31.415570397379504 16.636922312516962
  endloop
endfacet
facet normal -0.28869605738999815 0.49999163970312827 0.8164943029038526
  outer loop
    vertex -12.089747557804943 16.415570397378996 18.677972486251836
    vertex -13.306349233478116 19.04644757263492 16.636737423995267
    vertex -17.863380002655582 16.41541399479143 16.63663431078729
  endloop
endfacet
facet normal -0.28869605738999815 0.49999163970312827 0.8164943029038526
  outer loop
    vertex -13.306349233478116 19.04644757263492 16.636737423995267
    vertex -12.089747557804943 16.415570397378996 18.677972486251836
    vertex -9.20290768209344 21.415516991617785 16.636922312517047
  endloop
endfacet
facet normal 0.9428026522372338 -9.28268683926414e-06 0.3333514044492233
  outer loop
    vertex -3.4291845623273693 11.41561998844345 0.3070233970375427
    vertex -7.090418280785464 7.7564642118065645 10.661625233532881
    vertex -6.316243083767105 6.415520806314874 8.471824796400663
  endloop
endfacet
facet normal 0.9428026522372338 -9.28268683926414e-06 0.3333514044492233
  outer loop
    vertex -7.090418280785464 7.7564642118065645 10.661625233532881
    vertex -3.4291845623273693 11.41561998844345 0.3070233970375427
    vertex -9.203123213102458 11.41546740055321 16.636878488001113
  endloop
endfacet
facet normal 0.9428026522372338 -9.28268683926414e-06 0.3333514044492233
  outer loop
    vertex -9.203123213102458 11.41546740055321 16.636878488001113
    vertex -3.4291845623273693 11.41561998844345 0.3070233970375427
    vertex -9.20290768209344 21.415516991617785 16.636922312517047
  endloop
endfacet
facet normal 0.9428026522372338 -9.28268683926414e-06 0.3333514044492233
  outer loop
    vertex -9.20290768209344 21.415516991617785 16.636922312517047
    vertex -3.4291845623273693 11.41561998844345 0.3070233970375427
    vertex -3.4291845623273693 21.415516991617277 0.3070233970375427
  endloop
endfacet
facet normal 0.9428026522372338 -9.28268683926414e-06 0.3333514044492233
  outer loop
    vertex -9.20290768209344 21.415516991617785 16.636922312517047
    vertex -3.4291845623273693 21.415516991617277 0.3070233970375427
    vertex -6.316027552758133 26.415623803141166 8.471868620916512
  endloop
endfacet
facet normal 0.9428026522372338 -9.28268683926414e-06 0.3333514044492233
  outer loop
    vertex -9.20290768209344 21.415516991617785 16.636922312517047
    vertex -6.316027552758133 26.415623803141166 8.471868620916512
    vertex -7.003549836306729 25.224929210004237 10.41626088856208
  endloop
endfacet
facet normal -0.28869075553336226 0.5001009387439934 0.8164292368215099
  outer loop
    vertex -17.86316447164661 36.41551699161773 16.63667813530314
    vertex -25.02787880209937 34.00574278401025 15.5791402399925
    vertex -26.523335368704704 31.41572298526983 16.637121434981633
  endloop
endfacet
facet normal -0.28869075553336226 0.5001009387439934 0.8164292368215099
  outer loop
    vertex -25.02787880209937 34.00574278401025 15.5791402399925
    vertex -17.86316447164661 36.41551699161773 16.63667813530314
    vertex -23.63658267551216 36.41536440372691 14.595375352546313
  endloop
endfacet
facet normal -0.4714078986998058 -0.8164980275282707 0.333325012691633
  outer loop
    vertex -12.089353257014073 -13.584582190511387 0.3069038085824261
    vertex -23.636490175902427 -3.5843761968591954 8.472279325820772
    vertex -20.74952195170071 -8.584483008382483 0.30678422012768736
  endloop
endfacet
facet normal -0.4714078986998058 -0.8164980275282707 0.333325012691633
  outer loop
    vertex -23.636490175902427 -3.5843761968591954 8.472279325820772
    vertex -12.089353257014073 -13.584582190511387 0.3069038085824261
    vertex -6.315937255519921 -13.584582190511387 8.471996324394953
  endloop
endfacet
facet normal -0.4714078986998058 -0.8164980275282707 0.333325012691633
  outer loop
    vertex -23.636490175902427 -3.5843761968591954 8.472279325820772
    vertex -6.315937255519921 -13.584582190511387 8.471996324394953
    vertex -9.202782448322205 -8.584483008382483 16.636838433555813
  endloop
endfacet
facet normal -0.4714078986998058 -0.8164980275282707 0.333325012691633
  outer loop
    vertex -23.636490175902427 -3.5843761968591954 8.472279325820772
    vertex -9.202782448322205 -8.584483008382483 16.636838433555813
    vertex -17.863380002655468 -3.584532599446853 16.63663431078751
  endloop
endfacet
facet normal 0.8660194928723688 -0.5000102378498767 -3.2241903230178984e-06
  outer loop
    vertex -7.003549836306729 25.224929210004237 10.41626088856208
    vertex -6.316031957501459 26.415623803141223 14.59565523925273
    vertex -9.20290768209344 21.415516991617785 16.636922312517047
  endloop
endfacet
facet normal 0.8660194928723688 -0.5000102378498767 -3.2241903230178984e-06
  outer loop
    vertex -6.316031957501459 26.415623803141223 14.59565523925273
    vertex -7.003549836306729 25.224929210004237 10.41626088856208
    vertex -6.316027552758133 26.415623803141166 8.471868620916512
  endloop
endfacet
facet normal 0.5773385168290933 1.0155967814812018e-14 0.8165048909746854
  outer loop
    vertex -6.316031957501459 26.415623803141223 14.59565523925273
    vertex -9.202907682093485 31.415570397379504 16.636922312516962
    vertex -9.20290768209344 21.415516991617785 16.636922312517047
  endloop
endfacet
facet normal 1.3688126368232053e-05 -3.1646775059551724e-06 0.99999999990131
  outer loop
    vertex -17.863380002655582 16.41541399479143 16.63663431078729
    vertex -26.523335368704704 31.41572298526983 16.637121434981633
    vertex -26.523460602475996 21.415673394205403 16.637205313943102
  endloop
endfacet
facet normal 1.3688126368232053e-05 -3.1646775059551724e-06 0.99999999990131
  outer loop
    vertex -26.523335368704704 31.41572298526983 16.637121434981633
    vertex -17.863380002655582 16.41541399479143 16.63663431078729
    vertex -17.86316447164661 36.41551699161773 16.63667813530314
  endloop
endfacet
facet normal 1.3688126368232053e-05 -3.1646775059551724e-06 0.99999999990131
  outer loop
    vertex -17.86316447164661 36.41551699161773 16.63667813530314
    vertex -17.863380002655582 16.41541399479143 16.63663431078729
    vertex -13.306349233478116 19.04644757263492 16.636737423995267
  endloop
endfacet
facet normal 1.3688126368232053e-05 -3.1646775059551724e-06 0.99999999990131
  outer loop
    vertex -17.86316447164661 36.41551699161773 16.63667813530314
    vertex -13.306349233478116 19.04644757263492 16.636737423995267
    vertex -9.68806832650386 31.695788947534066 16.636870151581114
  endloop
endfacet
facet normal 1.3688126368232053e-05 -3.1646775059551724e-06 0.99999999990131
  outer loop
    vertex -9.68806832650386 31.695788947534066 16.636870151581114
    vertex -13.306349233478116 19.04644757263492 16.636737423995267
    vertex -9.20290768209344 21.415516991617785 16.636922312517047
  endloop
endfacet
facet normal 1.3688126368232053e-05 -3.1646775059551724e-06 0.99999999990131
  outer loop
    vertex -9.68806832650386 31.695788947534066 16.636870151581114
    vertex -9.20290768209344 21.415516991617785 16.636922312517047
    vertex -9.202907682093485 31.415570397379504 16.636922312516962
  endloop
endfacet
facet normal 0.9427994111573722 1.6649191883255503e-05 0.3333605706200376
  outer loop
    vertex -3.4289690313181374 -8.584483008382483 0.3070672215534733
    vertex -9.202782448322205 -8.584483008382483 16.636838433555813
    vertex -6.315937255519921 -13.584582190511387 8.471996324394953
  endloop
endfacet
facet normal 0.9427994111573722 1.6649191883255503e-05 0.3333605706200376
  outer loop
    vertex -9.202782448322205 -8.584483008382483 16.636838433555813
    vertex -3.4289690313181374 -8.584483008382483 0.3070672215534733
    vertex -3.4289690313181374 1.4154139947913473 0.3070672215534733
  endloop
endfacet
facet normal 0.9427994111573722 1.6649191883255503e-05 0.3333605706200376
  outer loop
    vertex -9.202782448322205 -8.584483008382483 16.636838433555813
    vertex -3.4289690313181374 1.4154139947913473 0.3070672215534733
    vertex -9.203123213102401 1.4154139947914939 16.636878488001198
  endloop
endfacet
facet normal 0.9427994111573722 1.6649191883255503e-05 0.3333605706200376
  outer loop
    vertex -9.203123213102401 1.4154139947914939 16.636878488001198
    vertex -3.4289690313181374 1.4154139947913473 0.3070672215534733
    vertex -6.316243083767105 6.415520806314874 8.471824796400663
  endloop
endfacet
facet normal -0.2886596159159771 -0.5000354659537269 0.8164803481576759
  outer loop
    vertex -23.636584877883966 16.41572679996712 14.595938240678873
    vertex -17.863380002655582 16.41541399479143 16.63663431078729
    vertex -26.523460602475996 21.415673394205403 16.637205313943102
  endloop
endfacet
facet normal -0.2886596159159771 -0.5000354659537269 0.8164803481576759
  outer loop
    vertex -17.863380002655582 16.41541399479143 16.63663431078729
    vertex -23.636584877883966 16.41572679996712 14.595938240678873
    vertex -22.895661316006414 16.41557039737939 14.85733799602675
  endloop
endfacet
facet normal 0.8660208106654039 -0.5000079554307598 6.229151418355991e-07
  outer loop
    vertex -6.316247488510421 6.41552080631493 14.595611414736883
    vertex -9.203123213102401 1.4154139947914939 16.636878488001198
    vertex -6.316243083767105 6.415520806314874 8.471824796400663
  endloop
endfacet
facet normal 0.28868481425571213 -0.4999876789859417 -0.8165007035394373
  outer loop
    vertex -20.749521951700633 21.415825982096 0.30735022297929304
    vertex -23.63627620225261 16.415726799966976 2.3485314037487384
    vertex -29.409906177396667 16.415726799966958 0.3071868100080908
  endloop
endfacet
facet normal 0.8660153458151679 0.5000174204880768 4.5918315577513985e-06
  outer loop
    vertex -7.090418280785464 7.7564642118065645 10.661625233532881
    vertex -6.316247488510421 6.41552080631493 14.595611414736883
    vertex -6.316243083767105 6.415520806314874 8.471824796400663
  endloop
endfacet
facet normal 0.8660153458151679 0.5000174204880768 4.5918315577513985e-06
  outer loop
    vertex -6.316247488510421 6.41552080631493 14.595611414736883
    vertex -7.090418280785464 7.7564642118065645 10.661625233532881
    vertex -9.203123213102458 11.41546740055321 16.636878488001113
  endloop
endfacet
facet normal -0.2886931564319137 0.5000021283685533 0.8164889056541403
  outer loop
    vertex -26.523335368704704 31.41572298526983 16.637121434981633
    vertex -35.183717392029116 26.415619988443623 16.63696113672928
    vertex -29.410084947178216 26.41577639103155 18.678299312193587
  endloop
endfacet
facet normal -0.28867496615417787 -0.4999736222532021 0.8165127928984928
  outer loop
    vertex -27.00862125874613 21.695891951207344 16.637153153006846
    vertex -29.410084947178216 26.41577639103155 18.678299312193587
    vertex -35.183717392029116 26.415619988443623 16.63696113672928
  endloop
endfacet
facet normal -0.28867496615417787 -0.4999736222532021 0.8165127928984928
  outer loop
    vertex -29.410084947178216 26.41577639103155 18.678299312193587
    vertex -27.00862125874613 21.695891951207344 16.637153153006846
    vertex -26.523460602475996 21.415673394205403 16.637205313943102
  endloop
endfacet
facet normal 1.5320141128540145e-05 -2.1265686971898344e-06 0.9999999998803857
  outer loop
    vertex -26.523335368704704 1.4157229852697102 16.637121434981633
    vertex -17.863380002655582 16.41541399479143 16.63663431078729
    vertex -26.52346060247594 11.415619988443687 16.637205313943188
  endloop
endfacet
facet normal 1.5320141128540145e-05 -2.1265686971898344e-06 0.9999999998803857
  outer loop
    vertex -17.863380002655582 16.41541399479143 16.63663431078729
    vertex -26.523335368704704 1.4157229852697102 16.637121434981633
    vertex -17.863380002655468 -3.584532599446853 16.63663431078751
  endloop
endfacet
facet normal 1.5320141128540145e-05 -2.1265686971898344e-06 0.9999999998803857
  outer loop
    vertex -17.863380002655582 16.41541399479143 16.63663431078729
    vertex -17.863380002655468 -3.584532599446853 16.63663431078751
    vertex -9.688283865614235 11.695685955385022 16.636826327065055
  endloop
endfacet
facet normal 1.5320141128540145e-05 -2.1265686971898344e-06 0.9999999998803857
  outer loop
    vertex -9.688283865614235 11.695685955385022 16.636826327065055
    vertex -17.863380002655468 -3.584532599446853 16.63663431078751
    vertex -9.203123213102401 1.4154139947914939 16.636878488001198
  endloop
endfacet
facet normal 1.5320141128540145e-05 -2.1265686971898344e-06 0.9999999998803857
  outer loop
    vertex -9.688283865614235 11.695685955385022 16.636826327065055
    vertex -9.203123213102401 1.4154139947914939 16.636878488001198
    vertex -9.203123213102458 11.41546740055321 16.636878488001113
  endloop
endfacet
facet normal 9.031170966572122e-06 -0.9999999996330016 -2.554280564327471e-05
  outer loop
    vertex -17.863380002655468 -3.584532599446853 16.63663431078751
    vertex -23.636793534442827 -3.584532599446898 14.595328224472693
    vertex -23.636490175902427 -3.5843761968591954 8.472279325820772
  endloop
endfacet
facet normal -0.28867889689193443 -0.500043256095497 0.8164687602858233
  outer loop
    vertex -17.863380002655468 -3.584532599446853 16.63663431078751
    vertex -26.523335368704704 1.4157229852697102 16.637121434981633
    vertex -23.636793534442827 -3.584532599446898 14.595328224472693
  endloop
endfacet
facet normal -0.28865547899759103 -0.5000396142947906 0.8164792701474965
  outer loop
    vertex -43.84422685149593 31.415105004312732 16.636881602720248
    vertex -39.049271532420285 26.415310997965097 15.269653315806327
    vertex -35.183717392029116 26.415619988443623 16.63696113672928
  endloop
endfacet
facet normal -0.28865547899759103 -0.5000396142947906 0.8164792701474965
  outer loop
    vertex -39.049271532420285 26.415310997965097 15.269653315806327
    vertex -43.84422685149593 31.415105004312732 16.636881602720248
    vertex -40.957351126903895 26.415158410074454 14.595614529456016
  endloop
endfacet
facet normal 0.5773385168290933 1.0165105879256311e-14 0.8165048909746854
  outer loop
    vertex -6.316247488510421 6.41552080631493 14.595611414736883
    vertex -9.203123213102458 11.41546740055321 16.636878488001113
    vertex -9.203123213102401 1.4154139947914939 16.636878488001198
  endloop
endfacet
facet normal -0.2886221474143602 0.5000187938544361 0.8165038039190501
  outer loop
    vertex -26.52346060247594 11.415619988443687 16.637205313943188
    vertex -22.895661316006414 16.41557039737939 14.85733799602675
    vertex -23.636584877883966 16.41572679996712 14.595938240678873
  endloop
endfacet
facet normal -0.2886221474143602 0.5000187938544361 0.8165038039190501
  outer loop
    vertex -22.895661316006414 16.41557039737939 14.85733799602675
    vertex -26.52346060247594 11.415619988443687 16.637205313943188
    vertex -17.863380002655582 16.41541399479143 16.63663431078729
  endloop
endfacet
facet normal -0.8660137115873953 0.5000202507603358 1.3122302678601056e-05
  outer loop
    vertex -40.95704089391328 46.415570397379284 8.47199943911405
    vertex -43.843886086715564 41.415463585855846 16.636841548274912
    vertex -40.9571287214447 46.41525759220337 14.595092162281922
  endloop
endfacet
facet normal -0.866054642602529 -0.4999493505084696 -5.43393526045227e-05
  outer loop
    vertex -26.523335368704704 1.4157229852697102 16.637121434981633
    vertex -23.636490175902427 -3.5843761968591954 8.472279325820772
    vertex -23.636793534442827 -3.584532599446898 14.595328224472693
  endloop
endfacet
facet normal -0.866054642602529 -0.4999493505084696 -5.43393526045227e-05
  outer loop
    vertex -23.636490175902427 -3.5843761968591954 8.472279325820772
    vertex -26.523335368704704 1.4157229852697102 16.637121434981633
    vertex -26.262776229728313 0.9640940028266126 15.899575817996354
  endloop
endfacet
facet normal -0.5773207190523542 1.887644077278397e-05 -0.8165174750099062
  outer loop
    vertex -39.25900610432831 29.35645441917775 1.1477428890186412
    vertex -38.07029040309226 21.415516991617277 0.30702339703744685
    vertex -40.95704465364424 26.415623803140715 2.348204577806892
  endloop
endfacet
facet normal -0.5773207190523542 1.887644077278397e-05 -0.8165174750099062
  outer loop
    vertex -38.07029040309226 21.415516991617277 0.30702339703744685
    vertex -39.25900610432831 29.35645441917775 1.1477428890186412
    vertex -38.07007266971149 31.415566582682015 0.3070703362725702
  endloop
endfacet
facet normal 0.5773389573240192 -3.81475985595992e-07 0.8165045795069792
  outer loop
    vertex -26.523335368704704 31.41572298526983 16.637121434981633
    vertex -29.410084947178216 26.41577639103155 18.678299312193587
    vertex -26.523460602475996 21.415673394205403 16.637205313943102
  endloop
endfacet
endsolid ttt_base
